# https://github.com/mikedh/trimesh
v -0.03422840 0.02276844 -0.06191516
v -0.03422840 0.02276844 -0.06303698
v -0.03425450 0.02276844 -0.06080701
v 0.03273986 0.02161407 -0.06080610
v -0.03424580 0.02276844 -0.06413328
v 0.03273986 0.02161407 -0.06413510
v -0.03434147 0.02276844 -0.06016910
v 0.03273986 0.02160515 -0.05630061
v -0.03434147 0.02276844 -0.06478486
v 0.03273986 0.02134665 -0.06509288
v -0.03607221 0.02276844 -0.06560868
v -0.03495897 0.02276844 -0.06524506
v -0.03495897 0.02276844 -0.05972803
v 0.03273986 -0.02160565 -0.05630061
v -0.03607221 0.02276844 -0.05936715
v -0.03716805 0.02276844 -0.05936533
v -0.05160536 0.02160515 -0.05630061
v 0.03273986 0.02053101 -0.06555309
v -0.04384748 0.02276844 -0.06560868
v 0.03273986 0.01941676 -0.06561050
v -0.03718544 -0.02276448 -0.05936533
v -0.03607221 -0.02276448 -0.05936715
v -0.03496766 -0.02276448 -0.05972438
v -0.03495897 -0.02276448 -0.05972803
v -0.03434147 -0.02276448 -0.06016910
v -0.03425450 -0.02276448 -0.06080701
v 0.03273986 -0.02161457 -0.06080610
v -0.05160536 -0.02160565 -0.05630061
v -0.04273424 0.02276844 -0.05936533
v -0.05271860 0.02153384 -0.05630061
v -0.04384748 0.02276844 -0.05936715
v -0.04495202 0.02276844 -0.05965695
v -0.04495202 0.02276844 -0.06532162
v -0.03274118 0.01941676 -0.06561050
v -0.05271860 0.01942121 -0.06560868
v -0.05383184 0.01942121 -0.06560594
v -0.05271860 0.02053101 -0.06552301
v -0.05271860 0.02131099 -0.06506280
v 0.03273986 -0.01941726 -0.06561050
v -0.04274294 -0.02276448 -0.05936533
v -0.03422840 -0.02276448 -0.06190513
v 0.03273986 -0.02161457 -0.06413419
v -0.05271860 -0.02153434 -0.05630061
v -0.04495202 -0.02276448 -0.05965695
v -0.04384748 -0.02276448 -0.05936715
v -0.04560431 0.02276844 -0.06009802
v -0.04573477 0.02276844 -0.06080701
v -0.04575216 0.02276844 -0.06190149
v -0.05271860 0.02153384 -0.06413328
v -0.05374487 0.02127533 -0.05630061
v -0.04560431 0.02276844 -0.06486141
v -0.05358832 0.02121294 -0.06491882
v -0.03274118 -0.01941726 -0.06561050
v -0.05383184 0.01831142 -0.06560868
v -0.05391011 0.02062461 -0.06519221
v -0.05493638 0.01719716 -0.06557223
v -0.05493638 0.01831142 -0.06554853
v -0.05504075 0.01951035 -0.06520497
v 0.03273986 -0.02053151 -0.06555309
v -0.03607221 -0.02276448 -0.06560868
v -0.03422840 -0.02276448 -0.06302331
v 0.03273986 -0.02135160 -0.06509105
v -0.03424580 -0.02276448 -0.06413328
v -0.03434147 -0.02276448 -0.06478486
v -0.03495897 -0.02276448 -0.06524506
v -0.05271860 -0.02153434 -0.06413328
v -0.04575216 -0.02276448 -0.06191516
v -0.04573477 -0.02276448 -0.06080701
v -0.04560431 -0.02276448 -0.06009802
v -0.05374487 -0.02127583 -0.05630061
v -0.04575216 0.02276844 -0.06302331
v -0.05374487 0.02127533 -0.06413328
v -0.04573477 0.02276844 -0.06413328
v -0.05430149 0.02104803 -0.05630061
v -0.05473635 0.02031708 -0.06499081
v -0.05430149 0.02104803 -0.06413328
v -0.04384748 -0.02276448 -0.06560868
v -0.05271860 -0.01942171 -0.06560868
v -0.05383184 -0.01831192 -0.06560868
v -0.05493638 -0.01719766 -0.06557223
v -0.05579740 0.01719716 -0.06511201
v -0.05576261 0.01831142 -0.06508923
v -0.05564086 0.01920728 -0.06493978
v -0.04575216 -0.02276448 -0.06303242
v -0.05374487 -0.02127583 -0.06413328
v -0.05358832 -0.02121344 -0.06491882
v -0.04560431 -0.02276448 -0.06486141
v -0.04573477 -0.02276448 -0.06413328
v -0.05377966 -0.02126246 -0.05630061
v -0.05491029 0.02049090 -0.05630061
v -0.05546691 0.01992931 -0.06413328
v -0.05491029 0.02049090 -0.06413328
v -0.04495202 -0.02276448 -0.06532162
v -0.05271860 -0.02131149 -0.06506280
v -0.05271860 -0.02053151 -0.06552301
v -0.05383184 -0.01942171 -0.06560594
v -0.05493638 -0.01831192 -0.06554853
v -0.05579740 -0.01719766 -0.06511201
v -0.05610180 0.01719716 -0.06413328
v -0.05602353 0.01831142 -0.06413328
v -0.05571913 0.01937219 -0.06413328
v -0.05430149 -0.02104853 -0.06413328
v -0.05473635 -0.02031757 -0.06499081
v -0.05391011 -0.02062511 -0.06519221
v -0.05430149 -0.02104853 -0.05630061
v -0.05524078 0.02016108 -0.05923957
v -0.05543212 0.01996051 -0.05630061
v -0.05548430 0.01989811 -0.05630061
v -0.05546691 0.01992931 -0.05924048
v -0.05504075 -0.01951086 -0.06520497
v -0.05576261 -0.01831192 -0.06508923
v -0.05610180 -0.01719766 -0.06413328
v -0.05611050 0.01720162 -0.05923957
v -0.05602353 0.01831142 -0.05924048
v -0.05600613 0.01837381 -0.05630061
v -0.05571913 0.01937219 -0.05630061
v -0.05494508 -0.02046020 -0.05630061
v -0.05491029 -0.02049140 -0.06413328
v -0.05546691 -0.01992981 -0.06413328
v -0.05564086 -0.01920778 -0.06493978
v -0.05546691 0.01992486 -0.05630061
v -0.05602353 -0.01831192 -0.06413328
v -0.05611050 -0.01720212 -0.05923957
v -0.05611050 0.01720162 -0.05630061
v -0.05602353 0.01830696 -0.05630061
v -0.05546691 -0.01992536 -0.05630061
v -0.05546691 -0.01992981 -0.05924048
v -0.05571913 -0.01937269 -0.06413328
v -0.05602353 -0.01831192 -0.05924048
v -0.05611050 -0.01720212 -0.05630061
v -0.05571913 -0.01937269 -0.05630061
v -0.05602353 -0.01830746 -0.05630061
f 1 2 5
f 1 5 9
f 1 9 12
f 1 12 11
f 1 11 19
f 1 19 33
f 1 33 51
f 1 51 73
f 1 73 71
f 1 71 48
f 1 48 47
f 1 47 46
f 1 46 32
f 1 32 31
f 1 31 29
f 1 29 16
f 1 16 15
f 1 15 13
f 1 13 7
f 1 7 3
f 1 3 4
f 1 4 6
f 1 6 2
f 2 6 5
f 3 7 8
f 3 8 4
f 4 8 14
f 4 14 27
f 4 27 42
f 4 42 62
f 4 62 59
f 4 59 39
f 4 39 20
f 4 20 18
f 4 18 10
f 4 10 6
f 5 6 9
f 6 10 11
f 6 11 12
f 6 12 9
f 7 13 8
f 8 13 15
f 8 15 16
f 8 16 29
f 8 29 17
f 8 17 30
f 8 30 50
f 8 50 74
f 8 74 90
f 8 90 107
f 8 107 121
f 8 121 108
f 8 108 116
f 8 116 115
f 8 115 125
f 8 125 124
f 8 124 130
f 8 130 132
f 8 132 131
f 8 131 126
f 8 126 117
f 8 117 105
f 8 105 89
f 8 89 70
f 8 70 43
f 8 43 28
f 8 28 14
f 10 18 11
f 11 18 20
f 11 20 34
f 11 34 19
f 14 21 22
f 14 22 23
f 14 23 24
f 14 24 25
f 14 25 26
f 14 26 27
f 14 28 40
f 14 40 21
f 17 29 31
f 17 31 32
f 17 32 30
f 19 34 35
f 19 35 36
f 19 36 37
f 19 37 38
f 19 38 33
f 20 39 53
f 20 53 34
f 21 40 45
f 21 45 44
f 21 44 69
f 21 69 68
f 21 68 67
f 21 67 84
f 21 84 88
f 21 88 87
f 21 87 93
f 21 93 77
f 21 77 60
f 21 60 65
f 21 65 64
f 21 64 63
f 21 63 61
f 21 61 41
f 21 41 26
f 21 26 25
f 21 25 24
f 21 24 23
f 21 23 22
f 26 41 27
f 27 41 61
f 27 61 42
f 28 43 44
f 28 44 45
f 28 45 40
f 30 32 46
f 30 46 47
f 30 47 48
f 30 48 71
f 30 71 49
f 30 49 72
f 30 72 50
f 33 38 52
f 33 52 51
f 34 53 79
f 34 79 54
f 34 54 35
f 35 54 36
f 36 55 37
f 36 54 56
f 36 56 57
f 36 57 58
f 36 58 55
f 37 55 38
f 38 55 52
f 39 59 60
f 39 60 77
f 39 77 53
f 42 61 63
f 42 63 64
f 42 64 65
f 42 65 60
f 42 60 62
f 43 66 84
f 43 84 67
f 43 67 68
f 43 68 69
f 43 69 44
f 43 70 85
f 43 85 66
f 49 52 72
f 49 71 73
f 49 73 51
f 49 51 52
f 50 72 76
f 50 76 74
f 52 55 75
f 52 75 76
f 52 76 72
f 53 77 78
f 53 78 79
f 54 79 80
f 54 80 56
f 55 58 75
f 56 80 98
f 56 98 81
f 56 81 57
f 57 81 82
f 57 82 58
f 58 82 83
f 58 83 75
f 59 62 60
f 66 85 86
f 66 86 87
f 66 87 88
f 66 88 84
f 70 89 85
f 74 76 92
f 74 92 90
f 75 83 91
f 75 91 92
f 75 92 76
f 77 93 94
f 77 94 95
f 77 95 96
f 77 96 78
f 78 96 79
f 79 96 80
f 80 97 98
f 80 96 97
f 81 98 112
f 81 112 99
f 81 99 82
f 82 99 100
f 82 100 83
f 83 100 101
f 83 101 91
f 85 89 102
f 85 102 86
f 86 94 93
f 86 93 87
f 86 102 103
f 86 103 104
f 86 104 94
f 89 105 102
f 90 92 106
f 90 106 107
f 91 101 108
f 91 108 109
f 91 109 106
f 91 106 92
f 94 104 95
f 95 104 96
f 96 104 110
f 96 110 97
f 97 110 111
f 97 111 98
f 98 111 112
f 99 112 123
f 99 123 113
f 99 113 100
f 100 113 124
f 100 124 114
f 100 114 115
f 100 115 101
f 101 115 116
f 101 116 108
f 102 105 117
f 102 117 118
f 102 118 103
f 103 118 119
f 103 119 120
f 103 120 110
f 103 110 104
f 106 109 121
f 106 121 107
f 108 121 109
f 110 120 111
f 111 122 112
f 111 120 122
f 112 122 123
f 113 123 130
f 113 130 124
f 114 124 125
f 114 125 115
f 117 126 127
f 117 127 119
f 117 119 118
f 119 127 131
f 119 131 128
f 119 128 120
f 120 128 122
f 122 129 130
f 122 130 123
f 122 128 131
f 122 131 129
f 126 131 127
f 129 131 132
f 129 132 130

