# https://github.com/mikedh/trimesh
v 0.02609331 0.01133928 -0.00170778
v 0.02609175 0.01133928 -0.00086571
v 0.02076740 0.00000458 -0.00086571
v 0.02609331 0.01133928 -0.03478739
v 0.02606525 0.01133928 -0.00068205
v 0.02581891 0.01133928 -0.00004791
v 0.02057251 0.00000458 -0.00037018
v 0.02076740 0.00000458 -0.03478739
v 0.01016546 0.01133928 -0.03478739
v 0.02566300 0.01133928 0.00005259
v 0.02037295 0.00000458 0.00013576
v 0.01522789 0.00000458 -0.03478739
v 0.01016546 0.01133928 -0.00095234
v 0.01990209 0.00000458 0.00036446
v 0.02465893 0.01133928 0.00046842
v 0.01942345 0.00000458 0.00059664
v 0.01522789 0.00000458 -0.00086571
v 0.01016702 0.01133928 -0.00086571
v 0.02354885 0.01133928 0.00060704
v 0.01887308 0.00000458 0.00060357
v 0.01530584 0.00000458 -0.00042909
v 0.01066594 0.01133928 0.00008724
v 0.01538380 0.00000458 0.00000061
v 0.02275370 0.01133928 0.00061050
v 0.02275370 0.01054480 0.00061050
v 0.01831492 0.00000458 0.00061050
v 0.01574240 0.00000458 0.00023278
v 0.01609631 0.00000458 0.00046149
v 0.01165441 0.01133928 0.00045456
v 0.01387614 0.01133928 0.00061050
v 0.01720640 0.00000458 0.00061050
v 0.01276606 0.01054480 0.00056891
v 0.01276606 0.01133928 0.00059664
v 0.01387614 0.01054480 0.00061050
f 1 2 3
f 1 3 8
f 1 8 4
f 1 4 9
f 1 9 13
f 1 13 18
f 1 18 22
f 1 22 29
f 1 29 33
f 1 33 30
f 1 30 24
f 1 24 19
f 1 19 15
f 1 15 10
f 1 10 6
f 1 6 5
f 1 5 2
f 2 5 3
f 3 5 6
f 3 6 7
f 3 7 11
f 3 11 14
f 3 14 16
f 3 16 20
f 3 20 26
f 3 26 31
f 3 31 28
f 3 28 27
f 3 27 23
f 3 23 21
f 3 21 17
f 3 17 12
f 3 12 8
f 4 8 12
f 4 12 9
f 6 10 11
f 6 11 7
f 9 12 17
f 9 17 13
f 10 14 11
f 10 15 16
f 10 16 14
f 13 17 18
f 15 19 16
f 16 19 20
f 17 21 18
f 18 21 23
f 18 23 22
f 19 24 25
f 19 25 26
f 19 26 20
f 22 23 27
f 22 27 28
f 22 28 29
f 24 30 34
f 24 34 31
f 24 31 26
f 24 26 25
f 28 31 32
f 28 32 29
f 29 32 33
f 30 33 34
f 31 34 33
f 31 33 32

