# https://github.com/mikedh/trimesh
v -0.03718627 0.02960995 -0.06080552
v -0.03718627 0.02960995 -0.06413397
v -0.04273311 0.02960995 -0.06080552
v -0.03718627 0.02923425 -0.05983462
v -0.03607623 0.02921148 -0.05984501
v -0.03607623 0.02956240 -0.06080552
v -0.03718627 0.02923425 -0.06513300
v -0.04273311 0.02960995 -0.06413397
v -0.03607623 0.02956240 -0.06413397
v -0.03607623 0.02921148 -0.06512322
v -0.04384428 0.02957512 -0.06080552
v -0.04384428 0.02921751 -0.05984134
v -0.04273311 0.02923425 -0.05983462
v -0.03718627 0.02830406 -0.05940358
v -0.03607623 0.02830406 -0.05941459
v -0.03524483 0.02907821 -0.05998808
v -0.03510720 0.02918737 -0.06080552
v -0.03607623 0.02830406 -0.06558299
v -0.03718627 0.02830406 -0.06559277
v -0.04273311 0.02923425 -0.06513300
v -0.04384428 0.02921751 -0.06512628
v -0.04384428 0.02957512 -0.06413397
v -0.03510720 0.02918737 -0.06413397
v -0.03524483 0.02907821 -0.06497220
v -0.04485731 0.02919943 -0.06080552
v -0.04470389 0.02908625 -0.05998319
v -0.04384428 0.02830406 -0.05941153
v -0.04273311 0.02830406 -0.05940358
v -0.03607623 0.02719439 -0.05938952
v -0.03496619 0.02719439 -0.05979549
v -0.03491091 0.02821298 -0.05991104
v -0.03440327 0.02778304 -0.06023386
v -0.03455218 0.02835361 -0.06080552
v -0.03607623 0.02719439 -0.06560989
v -0.03491091 0.02821298 -0.06505413
v -0.03496619 0.02719439 -0.06517763
v -0.04273311 0.02830406 -0.06559277
v -0.04384428 0.02830406 -0.06558605
v -0.04470389 0.02908625 -0.06497587
v -0.04485731 0.02919943 -0.06413397
v -0.03455218 0.02835361 -0.06413397
v -0.03440327 0.02778304 -0.06470808
v -0.04541120 0.02853845 -0.06080552
v -0.04554206 0.02790559 -0.06017456
v -0.04502652 0.02828731 -0.05987252
v -0.04495319 0.02719439 -0.05970622
v -0.04384428 0.02719439 -0.05938952
v -0.03496619 0.02276844 -0.05972762
v -0.03717274 0.02276844 -0.05936384
v -0.03607623 0.02276844 -0.05936629
v -0.03434799 0.02276844 -0.06016783
v -0.03426000 0.02276844 -0.06080552
v -0.03423293 0.02276844 -0.06191582
v -0.03440101 0.02779911 -0.06080552
v -0.03607623 0.02396717 -0.06560989
v -0.04384428 0.02719439 -0.06560989
v -0.03496619 0.02276844 -0.06524550
v -0.03497972 0.02276844 -0.06525039
v -0.03435025 0.02276844 -0.06479062
v -0.04495319 0.02719439 -0.06527668
v -0.04502652 0.02828731 -0.06509631
v -0.04554206 0.02790559 -0.06477411
v -0.04541120 0.02853845 -0.06413397
v -0.03440101 0.02779911 -0.06413397
v -0.03423293 0.02276844 -0.06303774
v -0.03425436 0.02276844 -0.06414131
v -0.03434348 0.02276844 -0.06478511
v -0.04555898 0.02798395 -0.06080552
v -0.04560974 0.02719439 -0.06080552
v -0.04573496 0.02276844 -0.06080552
v -0.04555898 0.02719439 -0.06013726
v -0.04561087 0.02276844 -0.06009752
v -0.04495319 0.02276844 -0.05965609
v -0.04384315 0.02276844 -0.05936568
v -0.04273311 0.02276844 -0.05936384
v -0.04493966 0.02276844 -0.05965242
v -0.03607623 0.02276844 -0.06560928
v -0.04384428 0.02396717 -0.06560989
v -0.04495319 0.02276844 -0.06532253
v -0.04561426 0.02276844 -0.06486276
v -0.04555898 0.02719439 -0.06481691
v -0.04573835 0.02276844 -0.06413397
v -0.04560974 0.02719439 -0.06413397
v -0.04555898 0.02798395 -0.06413397
v -0.04575753 0.02276844 -0.06190237
v -0.04573384 0.02276844 -0.06079757
v -0.04384315 0.02276844 -0.06560928
v -0.04575753 0.02276844 -0.06302429
f 1 2 8
f 1 8 3
f 1 3 13
f 1 13 4
f 1 4 5
f 1 5 6
f 1 6 9
f 1 9 2
f 2 7 20
f 2 20 8
f 2 9 10
f 2 10 7
f 3 8 22
f 3 22 11
f 3 11 12
f 3 12 13
f 4 14 15
f 4 15 5
f 4 13 28
f 4 28 14
f 5 15 16
f 5 16 6
f 6 16 17
f 6 17 23
f 6 23 9
f 7 10 18
f 7 18 19
f 7 19 37
f 7 37 20
f 8 20 21
f 8 21 22
f 9 23 24
f 9 24 10
f 10 24 18
f 11 22 40
f 11 40 25
f 11 25 26
f 11 26 12
f 12 26 27
f 12 27 13
f 13 27 28
f 14 29 15
f 14 28 47
f 14 47 29
f 15 29 30
f 15 30 31
f 15 31 16
f 16 31 32
f 16 32 33
f 16 33 17
f 17 33 41
f 17 41 23
f 18 34 19
f 18 24 35
f 18 35 36
f 18 36 34
f 19 34 56
f 19 56 37
f 20 37 38
f 20 38 21
f 21 38 39
f 21 39 22
f 22 39 40
f 23 41 24
f 24 41 42
f 24 42 35
f 25 40 63
f 25 63 43
f 25 43 26
f 26 43 44
f 26 44 45
f 26 45 27
f 27 45 46
f 27 46 47
f 27 47 28
f 29 48 30
f 29 47 75
f 29 75 49
f 29 49 50
f 29 50 48
f 30 51 32
f 30 32 31
f 30 48 51
f 32 51 52
f 32 52 53
f 32 53 54
f 32 54 33
f 33 54 64
f 33 64 41
f 34 55 78
f 34 78 56
f 34 36 57
f 34 57 58
f 34 58 55
f 35 42 36
f 36 42 59
f 36 59 57
f 37 56 38
f 38 56 60
f 38 60 61
f 38 61 39
f 39 61 62
f 39 62 63
f 39 63 40
f 41 64 42
f 42 64 65
f 42 65 66
f 42 66 67
f 42 67 59
f 43 63 84
f 43 84 68
f 43 68 44
f 44 68 69
f 44 69 70
f 44 70 71
f 44 71 46
f 44 46 45
f 46 71 72
f 46 72 73
f 46 73 47
f 47 74 75
f 47 73 76
f 47 76 74
f 48 50 49
f 48 49 75
f 48 75 74
f 48 74 76
f 48 76 73
f 48 73 72
f 48 72 86
f 48 86 70
f 48 70 85
f 48 85 88
f 48 88 82
f 48 82 80
f 48 80 79
f 48 79 87
f 48 87 77
f 48 77 58
f 48 58 57
f 48 57 59
f 48 59 67
f 48 67 66
f 48 66 65
f 48 65 53
f 48 53 52
f 48 52 51
f 53 65 64
f 53 64 54
f 55 58 77
f 55 77 87
f 55 87 78
f 56 78 79
f 56 79 60
f 60 79 80
f 60 80 81
f 60 81 62
f 60 62 61
f 62 81 82
f 62 82 83
f 62 83 84
f 62 84 63
f 68 84 83
f 68 83 69
f 69 83 88
f 69 88 85
f 69 85 70
f 70 86 71
f 71 86 72
f 78 87 79
f 80 82 81
f 82 88 83

