# https://github.com/mikedh/trimesh
v 0.03682887 -0.02161050 -0.04987336
v 0.03682887 -0.02161050 -0.03479086
v 0.03682887 -0.01469246 -0.04987336
v 0.05161473 -0.02161050 -0.04987336
v 0.03682887 -0.01469246 -0.03479086
v 0.05161473 -0.02161050 -0.03479086
v 0.04370465 -0.01232952 -0.04987336
v 0.05255654 -0.02154963 -0.04987336
v 0.04370465 -0.01232952 -0.03479086
v 0.05272451 -0.02153873 -0.03479086
v 0.05610862 -0.01232952 -0.04987336
v 0.05272451 -0.02153873 -0.04987336
v 0.05610862 -0.01232952 -0.03479086
v 0.05359461 -0.02131797 -0.04987336
v 0.05317183 -0.02142517 -0.03479086
v 0.05610862 -0.01720440 -0.04987336
v 0.05610862 -0.01720440 -0.03479086
v 0.05374937 -0.02127800 -0.04987336
v 0.05374937 -0.02127800 -0.03479086
v 0.05607464 -0.01768861 -0.03479086
v 0.05602934 -0.01831455 -0.04987336
v 0.05383430 -0.02124348 -0.04987336
v 0.05430427 -0.02104997 -0.03479086
v 0.05602934 -0.01831455 -0.03479086
v 0.05577077 -0.01921576 -0.04987336
v 0.05430427 -0.02104997 -0.04987336
v 0.05491767 -0.02049489 -0.03479086
v 0.05572359 -0.01937656 -0.03479086
v 0.05572359 -0.01937656 -0.04987336
v 0.05491767 -0.02049489 -0.04987336
v 0.05500260 -0.02040950 -0.04987336
v 0.05523098 -0.02017693 -0.03479086
v 0.05558203 -0.01968998 -0.03479086
v 0.05568584 -0.01946105 -0.04987336
v 0.05547256 -0.01993164 -0.04987336
v 0.05547256 -0.01993164 -0.03479086
f 1 2 5
f 1 5 3
f 1 3 7
f 1 7 11
f 1 11 16
f 1 16 21
f 1 21 25
f 1 25 29
f 1 29 34
f 1 34 35
f 1 35 31
f 1 31 30
f 1 30 26
f 1 26 22
f 1 22 18
f 1 18 14
f 1 14 12
f 1 12 8
f 1 8 4
f 1 4 6
f 1 6 2
f 2 6 10
f 2 10 15
f 2 15 19
f 2 19 23
f 2 23 27
f 2 27 32
f 2 32 36
f 2 36 33
f 2 33 28
f 2 28 24
f 2 24 20
f 2 20 17
f 2 17 13
f 2 13 9
f 2 9 5
f 3 5 9
f 3 9 7
f 4 8 6
f 6 8 10
f 7 9 13
f 7 13 11
f 8 12 10
f 10 12 14
f 10 14 15
f 11 13 17
f 11 17 16
f 14 18 19
f 14 19 15
f 16 20 21
f 16 17 20
f 18 22 19
f 19 22 23
f 20 24 21
f 21 24 25
f 22 26 23
f 23 26 30
f 23 30 27
f 24 28 25
f 25 28 29
f 27 30 31
f 27 31 32
f 28 33 34
f 28 34 29
f 31 35 36
f 31 36 32
f 33 36 34
f 34 36 35

