# https://github.com/mikedh/trimesh
v -0.04642370 -0.01133598 -0.04987336
v -0.03789247 -0.01553993 -0.04987336
v -0.04642370 -0.01133598 -0.05629907
v -0.05611050 -0.01133598 -0.04987336
v -0.03789247 -0.02160949 -0.04987336
v -0.03789247 -0.01553993 -0.05629907
v -0.05611050 -0.01133598 -0.05629907
v -0.05611050 -0.01720440 -0.04987336
v -0.03789247 -0.02160949 -0.05629907
v -0.05161484 -0.02160949 -0.04987336
v -0.05611050 -0.01720440 -0.05629907
v -0.05603382 -0.01824936 -0.05629907
v -0.05602847 -0.01831473 -0.04987336
v -0.05161484 -0.02160949 -0.05629907
v -0.05178247 -0.02159944 -0.04987336
v -0.05602847 -0.01831473 -0.05629907
v -0.05572353 -0.01937678 -0.04987336
v -0.05265806 -0.02154312 -0.05629907
v -0.05272404 -0.02153809 -0.04987336
v -0.05572353 -0.01937678 -0.05629907
v -0.05570926 -0.01940896 -0.05629907
v -0.05547387 -0.01993194 -0.04987336
v -0.05272404 -0.02153809 -0.05629907
v -0.05287919 -0.02149886 -0.04987336
v -0.05547387 -0.01993194 -0.05629907
v -0.05539005 -0.02001743 -0.04987336
v -0.05374943 -0.02127861 -0.05629907
v -0.05374943 -0.02127861 -0.04987336
v -0.05495137 -0.02046095 -0.05629907
v -0.05491748 -0.02049414 -0.04987336
v -0.05422022 -0.02108451 -0.04987336
v -0.05430403 -0.02104930 -0.05629907
v -0.05491748 -0.02049414 -0.05629907
v -0.05488182 -0.02052733 -0.05629907
v -0.05439855 -0.02096583 -0.04987336
v -0.05430403 -0.02104930 -0.04987336
f 1 2 6
f 1 6 3
f 1 3 7
f 1 7 4
f 1 4 8
f 1 8 13
f 1 13 17
f 1 17 22
f 1 22 26
f 1 26 30
f 1 30 35
f 1 35 36
f 1 36 31
f 1 31 28
f 1 28 24
f 1 24 19
f 1 19 15
f 1 15 10
f 1 10 5
f 1 5 2
f 2 5 9
f 2 9 6
f 3 6 9
f 3 9 14
f 3 14 18
f 3 18 23
f 3 23 27
f 3 27 32
f 3 32 34
f 3 34 33
f 3 33 29
f 3 29 25
f 3 25 21
f 3 21 20
f 3 20 16
f 3 16 12
f 3 12 11
f 3 11 7
f 4 7 11
f 4 11 8
f 5 10 14
f 5 14 9
f 8 12 13
f 8 11 12
f 10 15 14
f 12 16 13
f 13 16 20
f 13 20 17
f 14 15 18
f 15 19 18
f 17 21 22
f 17 20 21
f 18 19 23
f 19 24 23
f 21 25 22
f 22 25 26
f 23 24 27
f 24 28 27
f 25 29 26
f 26 29 30
f 27 28 31
f 27 31 32
f 29 33 30
f 30 34 35
f 30 33 34
f 31 36 32
f 32 36 35
f 32 35 34

