# https://github.com/mikedh/trimesh
v -0.00159452 0.01942391 0.00060493
v -0.00277932 0.01942391 0.00061050
v -0.00159452 0.01831348 0.00060493
v -0.00159452 0.02053324 0.00054922
v -0.03162985 0.01942391 0.00061050
v -0.00277932 0.01720415 0.00061050
v -0.00159452 0.01720415 0.00059936
v -0.00159452 0.02134837 0.00008686
v -0.03279022 0.02131519 0.00010914
v -0.03162985 0.02053324 0.00054922
v -0.03279022 0.01942391 0.00060493
v -0.03162985 0.01720415 0.00061050
v -0.03279022 0.02048790 0.00054922
v -0.01411433 0.01031258 0.00061050
v -0.01387920 0.01031258 0.00060493
v -0.01300281 0.01031258 0.00057150
v -0.00159452 0.01616781 0.00049909
v -0.03279022 0.02134837 0.00008686
v -0.00159452 0.02136607 0.00002558
v -0.03279022 0.02053324 0.00054365
v -0.03279022 0.01720415 0.00060493
v -0.02053302 0.01031258 0.00061050
v -0.01275242 0.01031258 0.00049352
v -0.00159452 0.01609371 0.00048237
v -0.03279022 0.02161050 -0.00086572
v -0.00159452 0.02161050 -0.00086572
v -0.02164148 0.01054706 0.00060493
v -0.03279022 0.01600191 0.00010914
v -0.02164148 0.01031258 0.00058265
v -0.01185771 0.01031258 0.00017599
v -0.00159452 0.01534826 0.00003115
v -0.00159452 0.01539250 0.00005901
v -0.03279022 0.02161050 -0.05629907
v -0.00159452 0.02161050 -0.05629907
v -0.02280185 0.01031258 0.00019827
v -0.03279022 0.01553075 -0.00086572
v -0.03240852 0.01550421 -0.00022510
v -0.01175388 0.01031258 0.00010357
v -0.01132027 0.01031258 -0.00080444
v -0.00159452 0.01516355 -0.00081558
v -0.03279022 0.01549646 -0.05629907
v -0.00159452 0.01515249 -0.05629907
v -0.02353777 0.01031258 -0.00086572
v -0.03279022 0.01552964 -0.00197985
v -0.02354694 0.01031258 -0.00197985
v -0.01130195 0.01031258 -0.00086572
v -0.00159452 0.01515581 -0.00086572
v -0.02457906 0.01134117 -0.05629907
v -0.02354694 0.01031258 -0.03478529
v -0.01016906 0.01134117 -0.05629907
v -0.00159452 0.01515249 -0.05622665
v -0.01129890 0.01031258 -0.03478529
v -0.01129890 0.01031258 -0.00187400
f 1 2 6
f 1 6 3
f 1 3 7
f 1 7 17
f 1 17 24
f 1 24 32
f 1 32 31
f 1 31 40
f 1 40 47
f 1 47 51
f 1 51 42
f 1 42 34
f 1 34 26
f 1 26 19
f 1 19 8
f 1 8 4
f 1 4 2
f 2 5 12
f 2 12 22
f 2 22 14
f 2 14 6
f 2 4 10
f 2 10 5
f 3 6 7
f 4 8 9
f 4 9 10
f 5 11 21
f 5 21 12
f 5 10 13
f 5 13 11
f 6 14 7
f 7 14 15
f 7 15 16
f 7 16 17
f 8 18 9
f 8 19 18
f 9 20 10
f 9 18 25
f 9 25 33
f 9 33 41
f 9 41 44
f 9 44 36
f 9 36 28
f 9 28 21
f 9 21 11
f 9 11 13
f 9 13 20
f 10 20 13
f 12 21 22
f 14 22 29
f 14 29 35
f 14 35 43
f 14 43 45
f 14 45 49
f 14 49 52
f 14 52 53
f 14 53 46
f 14 46 39
f 14 39 38
f 14 38 30
f 14 30 23
f 14 23 16
f 14 16 15
f 16 23 24
f 16 24 17
f 18 19 25
f 19 26 25
f 21 27 22
f 21 28 29
f 21 29 27
f 22 27 29
f 23 30 31
f 23 31 32
f 23 32 24
f 25 26 34
f 25 34 33
f 28 35 29
f 28 36 37
f 28 37 35
f 30 38 31
f 31 39 40
f 31 38 39
f 33 34 42
f 33 42 50
f 33 50 48
f 33 48 41
f 35 37 43
f 36 44 45
f 36 45 43
f 36 43 37
f 39 46 47
f 39 47 40
f 41 48 49
f 41 49 45
f 41 45 44
f 42 51 53
f 42 53 52
f 42 52 50
f 46 53 47
f 47 53 51
f 48 50 52
f 48 52 49

