# https://github.com/mikedh/trimesh
v -0.01031493 -0.01120993 -0.04987336
v -0.00159502 -0.01515494 -0.04987336
v -0.00159502 -0.01515188 -0.05629907
v -0.01031493 -0.01120993 -0.05629907
v -0.02443238 -0.01120993 -0.04987336
v -0.00159502 -0.02161050 -0.04987336
v -0.00159502 -0.02161050 -0.05629907
v -0.02443238 -0.01120993 -0.05629907
v -0.03789247 -0.01553977 -0.04987336
v -0.03789247 -0.02161050 -0.04987336
v -0.03789247 -0.02161050 -0.05629907
v -0.03789247 -0.01553977 -0.05629907
f 1 2 3
f 1 3 4
f 1 4 8
f 1 8 5
f 1 5 9
f 1 9 10
f 1 10 6
f 1 6 2
f 2 6 7
f 2 7 3
f 3 7 11
f 3 11 12
f 3 12 8
f 3 8 4
f 5 8 12
f 5 12 9
f 6 10 11
f 6 11 7
f 9 12 11
f 9 11 10

