# https://github.com/mikedh/trimesh
v -0.05611050 0.00000468 -0.05629907
v -0.05611050 0.01236819 -0.05629907
v -0.05122134 0.00000468 -0.05629907
v -0.05611050 0.00000468 -0.00086572
v -0.04522153 0.01236819 -0.05629907
v -0.05611050 0.01236819 -0.00086572
v -0.05122027 0.00000468 -0.04987056
v -0.05580459 0.00000468 0.00010914
v -0.04522473 0.01236819 -0.00135037
v -0.05122027 0.00000468 -0.00197985
v -0.05580459 0.01236819 0.00010914
v -0.05537185 0.00000468 0.00034311
v -0.05122240 0.00000468 -0.00086572
v -0.04523006 0.01236819 -0.00086572
v -0.05494443 0.01236819 0.00057150
v -0.05494443 0.00000468 0.00057150
v -0.04524818 0.01236819 -0.00050920
v -0.04535690 0.01236819 -0.00019167
v -0.05169672 0.00000468 0.00014814
v -0.05383379 0.01236819 0.00061050
v -0.05383379 0.00000468 0.00061050
v -0.04557007 0.01236819 -0.00003569
v -0.04639932 0.01236819 0.00034868
v -0.05272422 0.00000468 0.00061050
v -0.04868243 0.01236819 0.00061050
v -0.04757285 0.01236819 0.00059936
f 1 2 5
f 1 5 3
f 1 3 7
f 1 7 10
f 1 10 13
f 1 13 19
f 1 19 24
f 1 24 21
f 1 21 16
f 1 16 12
f 1 12 8
f 1 8 4
f 1 4 6
f 1 6 2
f 2 6 11
f 2 11 15
f 2 15 20
f 2 20 25
f 2 25 26
f 2 26 23
f 2 23 22
f 2 22 18
f 2 18 17
f 2 17 14
f 2 14 9
f 2 9 5
f 3 5 7
f 4 8 11
f 4 11 6
f 5 9 10
f 5 10 7
f 8 12 11
f 9 13 10
f 9 14 13
f 11 12 15
f 12 16 15
f 13 14 17
f 13 17 18
f 13 18 19
f 15 16 21
f 15 21 20
f 18 22 19
f 19 22 23
f 19 23 24
f 20 21 24
f 20 24 25
f 23 26 24
f 24 26 25

