# https://github.com/mikedh/trimesh
v 0.03495150 0.02160954 -0.04987336
v 0.03495150 0.01481797 -0.04987336
v 0.03495150 0.02160954 -0.05629907
v -0.00159146 0.02160954 -0.04987336
v 0.03495150 0.01481797 -0.05526807
v 0.02668497 0.01184378 -0.04987336
v 0.03495150 0.01482179 -0.05629907
v -0.00159146 0.02160954 -0.05629907
v -0.00159146 0.01515449 -0.04987336
v 0.02668497 0.01184378 -0.05629907
v 0.00958318 0.01184378 -0.04987336
v -0.00159146 0.01515162 -0.05629907
v -0.00159146 0.01515162 -0.05622988
v 0.00958318 0.01184378 -0.05629907
f 1 2 5
f 1 5 7
f 1 7 3
f 1 3 8
f 1 8 4
f 1 4 9
f 1 9 11
f 1 11 6
f 1 6 2
f 2 6 10
f 2 10 5
f 3 7 10
f 3 10 14
f 3 14 12
f 3 12 8
f 4 8 12
f 4 12 13
f 4 13 9
f 5 10 7
f 6 11 14
f 6 14 10
f 9 13 11
f 11 13 12
f 11 12 14

