# https://github.com/mikedh/trimesh
v 0.04273384 0.02961050 -0.06080578
v 0.04273384 0.02961050 -0.06413386
v 0.03718647 0.02961050 -0.06080578
v 0.04273384 0.02923466 -0.05983419
v 0.04384331 0.02921722 -0.05984153
v 0.04384331 0.02957493 -0.06080578
v 0.04273384 0.02923466 -0.06513296
v 0.03718647 0.02961050 -0.06413386
v 0.04384331 0.02957493 -0.06413386
v 0.04384331 0.02921722 -0.06512624
v 0.03607587 0.02956285 -0.06080578
v 0.03607587 0.02921118 -0.05984520
v 0.03718647 0.02923466 -0.05983419
v 0.04384331 0.02830448 -0.05941168
v 0.04273384 0.02830448 -0.05940374
v 0.04470335 0.02908634 -0.05998277
v 0.04485685 0.02919977 -0.06080578
v 0.04384331 0.02830448 -0.06558604
v 0.04273384 0.02830448 -0.06559277
v 0.03718647 0.02923466 -0.06513296
v 0.03607587 0.02921118 -0.06512318
v 0.03607587 0.02956285 -0.06413386
v 0.04485685 0.02919977 -0.06413386
v 0.04470335 0.02908634 -0.06497582
v 0.03510748 0.02918769 -0.06080578
v 0.03524405 0.02907829 -0.05998766
v 0.03607587 0.02830448 -0.05941474
v 0.03718647 0.02830448 -0.05940374
v 0.04384331 0.02719442 -0.05938967
v 0.04495392 0.02719442 -0.05970640
v 0.04502615 0.02828703 -0.05987271
v 0.04554195 0.02790583 -0.06017476
v 0.04541215 0.02853870 -0.06080578
v 0.04384331 0.02719442 -0.06560989
v 0.04502615 0.02828703 -0.06509628
v 0.04495392 0.02719442 -0.06527665
v 0.03718647 0.02830448 -0.06559277
v 0.03607587 0.02830448 -0.06558299
v 0.03524405 0.02907829 -0.06497215
v 0.03510748 0.02918769 -0.06413386
v 0.04541215 0.02853870 -0.06413386
v 0.04554195 0.02790583 -0.06477405
v 0.03455218 0.02835414 -0.06080578
v 0.03440432 0.02778301 -0.06023408
v 0.03491222 0.02821320 -0.05991123
v 0.03607587 0.02719442 -0.05938967
v 0.03496527 0.02719442 -0.05979567
v 0.04273497 0.02275556 -0.05936399
v 0.04384331 0.02275556 -0.05936521
v 0.04495279 0.02275422 -0.05965504
v 0.04561306 0.02275422 -0.06009711
v 0.04555888 0.02719442 -0.06013686
v 0.04573721 0.02275422 -0.06080578
v 0.04560967 0.02719442 -0.06080578
v 0.04555888 0.02798435 -0.06080578
v 0.04495279 0.02275556 -0.06532312
v 0.04384331 0.02275556 -0.06560989
v 0.03607587 0.02719442 -0.06560989
v 0.04555888 0.02719442 -0.06481685
v 0.04561531 0.02275556 -0.06486332
v 0.03496527 0.02719442 -0.06517760
v 0.03491222 0.02821320 -0.06505409
v 0.03440432 0.02778301 -0.06470862
v 0.03455218 0.02835414 -0.06413386
v 0.04555888 0.02798435 -0.06413386
v 0.04560967 0.02719442 -0.06413386
v 0.04574172 0.02275556 -0.06413448
v 0.03440094 0.02779979 -0.06080578
v 0.03423051 0.02275422 -0.06191555
v 0.03425647 0.02275556 -0.06080578
v 0.03434563 0.02275422 -0.06016682
v 0.03496640 0.02275422 -0.05972597
v 0.03607587 0.02275422 -0.05936583
v 0.03718534 0.02275556 -0.05936399
v 0.04273497 0.02275422 -0.05936399
v 0.04384331 0.02275422 -0.05936521
v 0.04576091 0.02275422 -0.06191555
v 0.04495279 0.02275422 -0.06532312
v 0.04384331 0.02275422 -0.06560928
v 0.03607587 0.02275556 -0.06560989
v 0.03496640 0.02275422 -0.06524669
v 0.04561531 0.02275422 -0.06486332
v 0.03434112 0.02275422 -0.06478627
v 0.03440094 0.02779979 -0.06413386
v 0.03425308 0.02275556 -0.06413448
v 0.03423051 0.02275422 -0.06302409
v 0.04576091 0.02275422 -0.06302409
v 0.04574172 0.02275422 -0.06413448
v 0.03425647 0.02275422 -0.06080578
v 0.03718534 0.02275422 -0.05936399
v 0.03607587 0.02275422 -0.06560928
v 0.03425308 0.02275422 -0.06413448
f 1 2 8
f 1 8 3
f 1 3 13
f 1 13 4
f 1 4 5
f 1 5 6
f 1 6 9
f 1 9 2
f 2 7 20
f 2 20 8
f 2 9 10
f 2 10 7
f 3 8 22
f 3 22 11
f 3 11 12
f 3 12 13
f 4 14 5
f 4 13 28
f 4 28 15
f 4 15 14
f 5 16 6
f 5 14 16
f 6 16 17
f 6 17 23
f 6 23 9
f 7 10 18
f 7 18 19
f 7 19 37
f 7 37 20
f 8 20 21
f 8 21 22
f 9 23 24
f 9 24 10
f 10 24 18
f 11 22 40
f 11 40 25
f 11 25 26
f 11 26 12
f 12 26 27
f 12 27 13
f 13 27 28
f 14 29 30
f 14 30 31
f 14 31 16
f 14 15 29
f 15 28 46
f 15 46 29
f 16 31 32
f 16 32 33
f 16 33 17
f 17 33 41
f 17 41 23
f 18 34 19
f 18 24 35
f 18 35 36
f 18 36 34
f 19 34 58
f 19 58 37
f 20 37 38
f 20 38 21
f 21 38 39
f 21 39 22
f 22 39 40
f 23 41 24
f 24 41 42
f 24 42 35
f 25 40 64
f 25 64 43
f 25 43 26
f 26 43 44
f 26 44 45
f 26 45 27
f 27 46 28
f 27 45 47
f 27 47 46
f 29 46 74
f 29 74 48
f 29 48 49
f 29 49 50
f 29 50 30
f 30 51 52
f 30 52 32
f 30 32 31
f 30 50 51
f 32 52 53
f 32 53 54
f 32 54 55
f 32 55 33
f 33 55 65
f 33 65 41
f 34 36 56
f 34 56 78
f 34 78 57
f 34 57 80
f 34 80 58
f 35 42 36
f 36 42 59
f 36 59 60
f 36 60 56
f 37 58 38
f 38 58 61
f 38 61 62
f 38 62 39
f 39 62 63
f 39 63 64
f 39 64 40
f 41 65 42
f 42 65 66
f 42 66 67
f 42 67 59
f 43 64 84
f 43 84 68
f 43 68 44
f 44 47 45
f 44 68 69
f 44 69 70
f 44 70 71
f 44 71 47
f 46 47 72
f 46 72 73
f 46 73 74
f 47 71 72
f 48 75 76
f 48 76 49
f 48 74 90
f 48 90 75
f 49 76 50
f 50 76 75
f 50 75 90
f 50 90 73
f 50 73 72
f 50 72 71
f 50 71 89
f 50 89 69
f 50 69 86
f 50 86 92
f 50 92 83
f 50 83 81
f 50 81 91
f 50 91 79
f 50 79 78
f 50 78 82
f 50 82 88
f 50 88 87
f 50 87 77
f 50 77 53
f 50 53 51
f 51 53 52
f 53 77 54
f 54 77 87
f 54 87 66
f 54 66 65
f 54 65 55
f 56 60 82
f 56 82 78
f 57 78 79
f 57 79 91
f 57 91 80
f 58 80 81
f 58 81 61
f 59 67 60
f 60 67 88
f 60 88 82
f 61 81 83
f 61 83 63
f 61 63 62
f 63 84 64
f 63 83 85
f 63 85 86
f 63 86 84
f 66 87 67
f 67 87 88
f 68 84 86
f 68 86 69
f 69 89 70
f 70 89 71
f 73 90 74
f 80 91 81
f 83 92 85
f 85 92 86

