# https://github.com/mikedh/trimesh
v -0.00159147 -0.02161050 -0.03478739
v -0.00159147 -0.02161050 -0.00086571
v -0.00159147 -0.01515500 -0.03478739
v 0.03957255 -0.02161050 -0.03478739
v -0.00159147 -0.02134983 0.00009071
v 0.03957255 -0.02161050 -0.00086571
v -0.00159147 -0.01515500 -0.00086571
v 0.00886980 -0.01242881 -0.03478739
v 0.03957255 -0.01420852 -0.03478739
v -0.00159147 -0.02129590 0.00012190
v 0.03957255 -0.02134983 0.00009071
v -0.00159147 -0.01534736 0.00003180
v 0.00951053 -0.01242881 0.00011150
v 0.00893427 -0.01242881 -0.00076175
v 0.00888591 -0.01242881 -0.00086571
v 0.00886980 -0.01242881 -0.00197807
v 0.02743490 -0.01242881 -0.03478739
v 0.03957255 -0.01420852 -0.00197807
v -0.00159147 -0.02053458 0.00055159
v 0.03957255 -0.02122400 0.00016348
v -0.00159147 -0.01609519 0.00049268
v 0.01088468 -0.01242881 0.00057931
v 0.00967575 -0.01242881 0.00019813
v 0.02743490 -0.01242881 -0.00086571
v 0.03957255 -0.01421482 -0.00086571
v -0.00159147 -0.01942451 0.00061050
v 0.03957255 -0.02053458 0.00055159
v 0.03957255 -0.02036290 0.00056199
v -0.00159147 -0.01720437 0.00061050
v 0.01199286 -0.01242881 0.00061050
v 0.02699969 -0.01242881 0.00003526
v 0.03957255 -0.01428492 -0.00026969
v 0.03957255 -0.01942451 0.00061050
v 0.02275232 -0.01242881 0.00061050
v 0.02606479 -0.01242881 0.00038872
v 0.03957255 -0.01432627 -0.00012760
v 0.03957255 -0.01609519 0.00061050
v 0.02497272 -0.01276588 0.00061050
v 0.02386454 -0.01242881 0.00060704
v 0.02497272 -0.01242881 0.00057238
v 0.03957255 -0.01485929 0.00026050
v 0.03957255 -0.01592352 0.00059317
v 0.03957255 -0.01498512 0.00033327
f 1 2 5
f 1 5 10
f 1 10 19
f 1 19 26
f 1 26 29
f 1 29 21
f 1 21 12
f 1 12 7
f 1 7 3
f 1 3 8
f 1 8 17
f 1 17 9
f 1 9 4
f 1 4 6
f 1 6 2
f 2 6 11
f 2 11 5
f 3 7 16
f 3 16 8
f 4 9 18
f 4 18 25
f 4 25 32
f 4 32 36
f 4 36 41
f 4 41 43
f 4 43 42
f 4 42 37
f 4 37 33
f 4 33 28
f 4 28 27
f 4 27 20
f 4 20 11
f 4 11 6
f 5 11 20
f 5 20 10
f 7 12 13
f 7 13 14
f 7 14 15
f 7 15 16
f 8 16 15
f 8 15 14
f 8 14 13
f 8 13 23
f 8 23 22
f 8 22 30
f 8 30 34
f 8 34 39
f 8 39 40
f 8 40 35
f 8 35 31
f 8 31 24
f 8 24 17
f 9 17 24
f 9 24 18
f 10 20 19
f 12 21 22
f 12 22 23
f 12 23 13
f 18 24 25
f 19 20 27
f 19 27 28
f 19 28 26
f 21 29 22
f 22 29 30
f 24 31 25
f 25 31 32
f 26 28 33
f 26 33 37
f 26 37 38
f 26 38 34
f 26 34 30
f 26 30 29
f 31 35 36
f 31 36 32
f 34 38 39
f 35 40 36
f 36 40 41
f 37 42 39
f 37 39 38
f 39 42 40
f 40 42 43
f 40 43 41

