# https://github.com/mikedh/trimesh
v 0.02743676 -0.01242791 -0.00197893
v 0.02076579 0.00000347 -0.00086705
v 0.02743494 -0.01242791 -0.00087200
v 0.02743676 -0.01242791 -0.04987336
v 0.02076579 0.00000347 -0.04987336
v 0.02037317 0.00000347 0.00013116
v 0.02699870 -0.01242791 0.00003233
v 0.00886710 -0.01242791 -0.04987336
v 0.01522725 0.00000347 -0.04987336
v 0.01990238 0.00000347 0.00036342
v 0.01942433 0.00000347 0.00059568
v 0.02606803 -0.01242791 0.00038812
v 0.00886710 -0.01242791 -0.00197893
v 0.01522725 0.00000347 -0.00086705
v 0.01831371 0.00000347 0.00061050
v 0.02386316 -0.01165400 0.00060556
v 0.02497377 -0.01242791 0.00057096
v 0.00888528 -0.01242791 -0.00086705
v 0.01538539 0.00000347 -0.00000227
v 0.02275436 -0.01054301 0.00061050
v 0.01720673 0.00000347 0.00061050
v 0.02386316 -0.01242791 0.00060556
v 0.00893254 -0.01242791 -0.00076328
v 0.00950694 -0.01242791 0.00011139
v 0.01574348 0.00000347 0.00022999
v 0.02275436 -0.01242791 0.00061050
v 0.01088294 -0.01242791 0.00057591
v 0.01199355 -0.01242791 0.00061050
v 0.01609611 0.00000347 0.00045731
v 0.00967598 -0.01242791 0.00019540
f 1 2 3
f 1 3 7
f 1 7 12
f 1 12 17
f 1 17 22
f 1 22 26
f 1 26 28
f 1 28 27
f 1 27 30
f 1 30 24
f 1 24 23
f 1 23 18
f 1 18 13
f 1 13 8
f 1 8 4
f 1 4 5
f 1 5 2
f 2 5 9
f 2 9 14
f 2 14 19
f 2 19 25
f 2 25 29
f 2 29 21
f 2 21 15
f 2 15 11
f 2 11 10
f 2 10 6
f 2 6 3
f 3 6 7
f 4 8 9
f 4 9 5
f 6 10 7
f 7 10 11
f 7 11 12
f 8 13 14
f 8 14 9
f 11 15 16
f 11 16 17
f 11 17 12
f 13 18 14
f 14 18 19
f 15 20 16
f 15 21 28
f 15 28 26
f 15 26 20
f 16 20 26
f 16 26 22
f 16 22 17
f 18 23 19
f 19 24 25
f 19 23 24
f 21 27 28
f 21 29 27
f 24 30 29
f 24 29 25
f 27 29 30

