# https://github.com/mikedh/trimesh
v 0.03682886 -0.02161050 -0.05629907
v 0.03682886 -0.02161050 -0.04987336
v 0.03682886 -0.01470174 -0.05629907
v 0.04652100 -0.02161050 -0.05629907
v 0.04652100 -0.02161050 -0.04987336
v 0.03682886 -0.01469255 -0.04987336
v 0.03682886 -0.01469830 -0.05600845
v 0.04652100 -0.00987262 -0.05629907
v 0.04652100 -0.00987377 -0.04987336
v 0.03682886 -0.01469255 -0.05525486
f 1 2 6
f 1 6 10
f 1 10 7
f 1 7 3
f 1 3 8
f 1 8 4
f 1 4 5
f 1 5 2
f 2 5 9
f 2 9 6
f 3 7 8
f 4 8 9
f 4 9 5
f 6 9 8
f 6 8 10
f 7 10 8

