# https://github.com/mikedh/trimesh
v -0.05610869 -0.01720569 -0.04987336
v -0.05610869 -0.01318362 -0.04987336
v -0.05609779 -0.01737396 -0.04987336
v -0.05610869 -0.01720569 -0.03479086
v -0.05610869 -0.01318362 -0.03479086
v -0.04419263 -0.01318362 -0.04987336
v -0.05602875 -0.01831432 -0.04987336
v -0.05606508 -0.01783012 -0.03479086
v -0.04419263 -0.01318362 -0.03479086
v -0.03755059 -0.01558894 -0.04987336
v -0.05598333 -0.01847599 -0.04987336
v -0.05602875 -0.01831432 -0.03479086
v -0.03755059 -0.01558894 -0.03479086
v -0.03755059 -0.02161050 -0.04987336
v -0.05572354 -0.01937675 -0.04987336
v -0.05572354 -0.01937675 -0.03479086
v -0.03755059 -0.02161050 -0.03479086
v -0.05161405 -0.02161050 -0.04987336
v -0.05551098 -0.01984775 -0.04987336
v -0.05561453 -0.01961844 -0.03479086
v -0.05161405 -0.02161050 -0.03479086
v -0.05224083 -0.02157008 -0.03479086
v -0.05272408 -0.02153874 -0.04987336
v -0.05547282 -0.01993189 -0.04987336
v -0.05547282 -0.01993189 -0.03479086
v -0.05272408 -0.02153874 -0.03479086
v -0.05288032 -0.02149914 -0.04987336
v -0.05538925 -0.02001685 -0.04987336
v -0.05516034 -0.02024946 -0.03479086
v -0.05375055 -0.02127808 -0.03479086
v -0.05375055 -0.02127808 -0.04987336
v -0.05491871 -0.02049445 -0.04987336
v -0.05491871 -0.02049445 -0.03479086
v -0.05430465 -0.02104959 -0.03479086
v -0.05422109 -0.02108423 -0.04987336
v -0.05430465 -0.02104959 -0.04987336
f 1 2 6
f 1 6 10
f 1 10 14
f 1 14 18
f 1 18 23
f 1 23 27
f 1 27 31
f 1 31 35
f 1 35 36
f 1 36 32
f 1 32 28
f 1 28 24
f 1 24 19
f 1 19 15
f 1 15 11
f 1 11 7
f 1 7 3
f 1 3 4
f 1 4 5
f 1 5 2
f 2 5 9
f 2 9 6
f 3 7 8
f 3 8 4
f 4 8 12
f 4 12 16
f 4 16 20
f 4 20 25
f 4 25 29
f 4 29 33
f 4 33 34
f 4 34 30
f 4 30 26
f 4 26 22
f 4 22 21
f 4 21 17
f 4 17 13
f 4 13 9
f 4 9 5
f 6 9 13
f 6 13 10
f 7 11 12
f 7 12 8
f 10 13 17
f 10 17 14
f 11 15 16
f 11 16 12
f 14 17 21
f 14 21 18
f 15 19 20
f 15 20 16
f 18 21 22
f 18 22 23
f 19 24 25
f 19 25 20
f 22 26 23
f 23 26 27
f 24 28 25
f 25 28 29
f 26 30 27
f 27 30 31
f 28 32 29
f 29 32 33
f 30 34 35
f 30 35 31
f 32 36 34
f 32 34 33
f 34 36 35

