# https://github.com/mikedh/trimesh
v -0.01133558 -0.01027105 -0.00197807
v -0.01522712 0.00000347 -0.00086571
v -0.01134154 -0.01027105 -0.00086571
v -0.01133558 -0.01027105 -0.03478739
v -0.01538326 0.00000347 0.00000061
v -0.01522712 0.00000347 -0.03478739
v -0.01176824 -0.01027105 0.00009764
v -0.02351080 -0.01027105 -0.03478739
v -0.01609602 0.00000347 0.00046149
v -0.01977778 0.00000347 -0.03478739
v -0.01274798 -0.01027105 0.00048228
v -0.02351080 -0.01027105 -0.00197807
v -0.01720567 0.00000347 0.00061050
v -0.01387551 -0.00943428 0.00060357
v -0.01977778 0.00000347 -0.00086571
v -0.01387551 -0.01027105 0.00060704
v -0.02350723 -0.01027105 -0.00149639
v -0.01498517 -0.00832497 0.00061050
v -0.01831414 0.00000347 0.00060704
v -0.02053464 -0.00943428 0.00061050
v -0.02350246 -0.01027105 -0.00086571
v -0.02339281 -0.01027105 -0.00059196
v -0.01932367 0.00000347 0.00014615
v -0.01498517 -0.01027105 0.00061050
v -0.01881592 0.00000347 0.00037832
v -0.02263357 -0.01027105 0.00027783
v -0.02164429 -0.00943428 0.00051694
v -0.02164429 -0.01027105 0.00058278
v -0.02137016 -0.01027105 0.00060704
v -0.02053464 -0.01027105 0.00061050
v -0.02279328 -0.01027105 0.00019467
f 1 2 3
f 1 3 7
f 1 7 11
f 1 11 16
f 1 16 24
f 1 24 30
f 1 30 29
f 1 29 28
f 1 28 26
f 1 26 31
f 1 31 22
f 1 22 21
f 1 21 17
f 1 17 12
f 1 12 8
f 1 8 4
f 1 4 6
f 1 6 2
f 2 5 3
f 2 6 10
f 2 10 15
f 2 15 23
f 2 23 25
f 2 25 19
f 2 19 13
f 2 13 9
f 2 9 5
f 3 5 7
f 4 8 10
f 4 10 6
f 5 9 7
f 7 9 11
f 8 12 15
f 8 15 10
f 9 13 14
f 9 14 11
f 11 14 16
f 12 17 15
f 13 18 16
f 13 16 14
f 13 19 20
f 13 20 30
f 13 30 24
f 13 24 18
f 15 17 21
f 15 21 22
f 15 22 23
f 16 18 24
f 19 25 26
f 19 26 27
f 19 27 28
f 19 28 29
f 19 29 20
f 20 29 30
f 22 31 23
f 23 31 26
f 23 26 25
f 26 28 27

