# https://github.com/mikedh/trimesh
v 0.03274627 -0.02161651 -0.06413352
v 0.03274627 -0.02161651 -0.06080624
v 0.03274627 -0.02135356 -0.06509133
v 0.03434490 -0.02277525 -0.06478421
v 0.03425571 -0.02277525 -0.06414445
v 0.03423512 -0.02277525 -0.06304448
v 0.03274627 -0.02160759 -0.05630061
v 0.03423512 -0.02277525 -0.06191533
v 0.03496697 -0.02277525 -0.06524443
v 0.03435405 -0.02277525 -0.06479241
v 0.03274627 -0.02053353 -0.06555246
v 0.03426028 -0.02277525 -0.06080624
v 0.03434948 -0.02277525 -0.06016831
v 0.03496697 -0.02277525 -0.05972813
v 0.03607847 -0.02277525 -0.05936725
v 0.03716709 -0.02277525 -0.05936542
v 0.05161193 -0.02160759 -0.05630061
v 0.03274627 0.02160885 -0.05630061
v 0.03498755 -0.02277525 -0.06525263
v 0.03274627 -0.01942382 -0.06560896
v 0.03607847 -0.02277525 -0.06560988
v 0.04273599 -0.02277525 -0.05936542
v 0.05272342 -0.02153183 -0.05630061
v 0.04384520 -0.02277525 -0.05936725
v 0.04493153 -0.02277525 -0.05965158
v 0.04495212 -0.02277525 -0.05965705
v 0.05161193 0.02160885 -0.05630061
v 0.03718767 0.02275422 -0.05936542
v 0.03607847 0.02275422 -0.05936725
v 0.03496697 0.02275422 -0.05972722
v 0.03434719 0.02275422 -0.06016740
v 0.03425800 0.02275422 -0.06080624
v 0.03423284 0.02275422 -0.06191533
v 0.03274627 0.02161777 -0.06080806
v 0.03274627 -0.01831411 -0.06560988
v 0.04384520 -0.02277525 -0.06560988
v 0.05278517 -0.02152292 -0.05630061
v 0.04560849 -0.02277525 -0.06009814
v 0.05265938 0.02153755 -0.05630061
v 0.04495212 0.02275422 -0.05965614
v 0.04384520 0.02275422 -0.05936634
v 0.04273599 0.02275422 -0.05936542
v 0.03423284 0.02275422 -0.06302352
v 0.03274627 0.02161777 -0.06413534
v 0.03274627 0.01942062 -0.06560988
v 0.05272113 -0.02130900 -0.06506308
v 0.04495212 -0.02277525 -0.06532189
v 0.05272113 -0.01942382 -0.06560988
v 0.05383263 -0.01942382 -0.06560623
v 0.05272113 -0.02053353 -0.06552330
v 0.04573199 -0.02277525 -0.06080624
v 0.04575486 -0.02277525 -0.06189528
v 0.05272113 -0.02153629 -0.05923693
v 0.05272113 -0.02153629 -0.06413352
v 0.05374801 -0.02127334 -0.06413352
v 0.05375030 -0.02127334 -0.05923601
v 0.05375030 -0.02127334 -0.05630061
v 0.05272342 0.02153309 -0.05630061
v 0.04560849 0.02275422 -0.06009722
v 0.03425342 0.02275422 -0.06413352
v 0.03274627 0.02135037 -0.06509315
v 0.03434262 0.02275422 -0.06478603
v 0.03274627 0.02053034 -0.06555246
v 0.03607847 0.02275422 -0.06560896
v 0.05272113 0.01942062 -0.06560988
v 0.05359020 -0.02121095 -0.06491909
v 0.04561307 -0.02277525 -0.06486167
v 0.05383263 -0.01830965 -0.06560988
v 0.05504246 -0.01951295 -0.06520616
v 0.05390810 -0.02062267 -0.06519249
v 0.05494183 -0.01719994 -0.06557251
v 0.05494183 -0.01830965 -0.06554973
v 0.04575486 -0.02277525 -0.06302352
v 0.04573657 -0.02277525 -0.06413352
v 0.05430147 -0.02104160 -0.06413352
v 0.05430375 -0.02104605 -0.05923601
v 0.05430375 -0.02104605 -0.05630061
v 0.05272342 0.02153309 -0.05923601
v 0.04575715 0.02275422 -0.06191533
v 0.04573428 0.02275422 -0.06080624
v 0.05375030 0.02127460 -0.05630061
v 0.03496697 0.02275422 -0.06524534
v 0.04384520 0.02275422 -0.06560896
v 0.05383263 0.01942062 -0.06560623
v 0.05383263 0.01831091 -0.06560988
v 0.05474058 -0.02031961 -0.06499199
v 0.05576287 -0.01830965 -0.06508859
v 0.05564624 -0.01920099 -0.06494096
v 0.05580175 -0.01719994 -0.06511229
v 0.05494183 0.01720119 -0.06557251
v 0.05491668 -0.02048897 -0.06413352
v 0.05491896 -0.02049342 -0.05923601
v 0.05434035 -0.02101486 -0.05630061
v 0.05375030 0.02127460 -0.05923601
v 0.05272113 0.02153309 -0.06413352
v 0.04575715 0.02275422 -0.06302352
v 0.05430375 0.02104731 -0.05630061
v 0.04495212 0.02275422 -0.06532281
v 0.05272113 0.02131026 -0.06506308
v 0.05272113 0.02053034 -0.06552330
v 0.05390810 0.02062393 -0.06519249
v 0.05504246 0.01950976 -0.06520616
v 0.05494183 0.01831091 -0.06554973
v 0.05547013 -0.01992743 -0.06413352
v 0.05610821 -0.01719994 -0.06413352
v 0.05602817 -0.01830965 -0.06413352
v 0.05572171 -0.01937034 -0.06413352
v 0.05580175 0.01720119 -0.06511229
v 0.05547242 -0.01992743 -0.05923601
v 0.05491896 -0.02049342 -0.05630061
v 0.05430375 0.02104731 -0.05923601
v 0.05374801 0.02127460 -0.06413352
v 0.04561307 0.02275422 -0.06486258
v 0.04573885 0.02275422 -0.06413352
v 0.05359020 0.02121221 -0.06491909
v 0.05491896 0.02049023 -0.05630061
v 0.05466510 0.02072197 -0.05923601
v 0.05474058 0.02032087 -0.06499199
v 0.05564624 0.01920224 -0.06494096
v 0.05576287 0.01831091 -0.06508859
v 0.05548843 -0.01989623 -0.05630061
v 0.05610821 0.01720119 -0.06413352
v 0.05611050 -0.01719994 -0.05923601
v 0.05602817 -0.01831411 -0.05923601
v 0.05572400 -0.01937034 -0.05923601
v 0.05547242 -0.01992743 -0.05630061
v 0.05491668 0.02049023 -0.06413352
v 0.05430147 0.02104285 -0.06413352
v 0.05547242 0.01992868 -0.05630061
v 0.05491896 0.02049023 -0.05923601
v 0.05547013 0.01992423 -0.06413352
v 0.05572171 0.01937160 -0.06413352
v 0.05602817 0.01831091 -0.06413352
v 0.05572400 -0.01937034 -0.05630061
v 0.05611050 0.01720119 -0.05923601
v 0.05611050 -0.01719994 -0.05630061
v 0.05602817 -0.01831411 -0.05630061
v 0.05547242 0.01992868 -0.05923601
v 0.05572400 0.01937160 -0.05630061
v 0.05572400 0.01937160 -0.05923601
v 0.05584978 0.01893484 -0.05923601
v 0.05602817 0.01831091 -0.05630061
v 0.05611050 0.01720119 -0.05630061
f 1 2 7
f 1 7 18
f 1 18 34
f 1 34 44
f 1 44 61
f 1 61 63
f 1 63 45
f 1 45 35
f 1 35 20
f 1 20 11
f 1 11 3
f 1 3 4
f 1 4 5
f 1 5 6
f 1 6 8
f 1 8 2
f 2 8 7
f 3 9 10
f 3 10 4
f 3 11 9
f 4 10 9
f 4 9 19
f 4 19 21
f 4 21 36
f 4 36 47
f 4 47 67
f 4 67 74
f 4 74 73
f 4 73 52
f 4 52 51
f 4 51 38
f 4 38 26
f 4 26 25
f 4 25 24
f 4 24 22
f 4 22 16
f 4 16 15
f 4 15 14
f 4 14 13
f 4 13 12
f 4 12 8
f 4 8 6
f 4 6 5
f 7 8 12
f 7 12 13
f 7 13 14
f 7 14 15
f 7 15 16
f 7 16 22
f 7 22 17
f 7 17 23
f 7 23 37
f 7 37 57
f 7 57 77
f 7 77 93
f 7 93 110
f 7 110 126
f 7 126 121
f 7 121 134
f 7 134 137
f 7 137 136
f 7 136 143
f 7 143 142
f 7 142 139
f 7 139 129
f 7 129 116
f 7 116 97
f 7 97 81
f 7 81 58
f 7 58 39
f 7 39 27
f 7 27 18
f 9 11 19
f 11 20 21
f 11 21 19
f 17 22 24
f 17 24 25
f 17 25 26
f 17 26 23
f 18 27 42
f 18 42 28
f 18 28 29
f 18 29 30
f 18 30 31
f 18 31 32
f 18 32 33
f 18 33 34
f 20 35 21
f 21 35 45
f 21 45 65
f 21 65 85
f 21 85 68
f 21 68 48
f 21 48 36
f 23 26 38
f 23 38 37
f 27 39 40
f 27 40 41
f 27 41 42
f 28 42 41
f 28 41 40
f 28 40 59
f 28 59 80
f 28 80 79
f 28 79 96
f 28 96 114
f 28 114 113
f 28 113 98
f 28 98 83
f 28 83 64
f 28 64 82
f 28 82 62
f 28 62 60
f 28 60 43
f 28 43 33
f 28 33 32
f 28 32 31
f 28 31 30
f 28 30 29
f 33 43 44
f 33 44 34
f 36 46 47
f 36 48 49
f 36 49 50
f 36 50 46
f 37 38 51
f 37 51 52
f 37 52 53
f 37 53 54
f 37 54 55
f 37 55 56
f 37 56 57
f 39 58 40
f 40 58 59
f 43 60 44
f 44 60 62
f 44 62 61
f 45 63 64
f 45 64 83
f 45 83 65
f 46 50 66
f 46 66 47
f 47 66 67
f 48 68 49
f 49 69 70
f 49 70 50
f 49 68 71
f 49 71 72
f 49 72 69
f 50 70 66
f 52 73 54
f 52 54 53
f 54 73 74
f 54 74 67
f 54 67 66
f 54 66 55
f 55 66 75
f 55 75 76
f 55 76 56
f 56 76 77
f 56 77 57
f 58 78 96
f 58 96 79
f 58 79 80
f 58 80 59
f 58 81 94
f 58 94 78
f 61 62 82
f 61 82 63
f 63 82 64
f 65 84 85
f 65 83 84
f 66 70 86
f 66 86 75
f 68 85 90
f 68 90 71
f 69 72 87
f 69 87 88
f 69 88 86
f 69 86 70
f 71 89 72
f 71 90 108
f 71 108 89
f 72 89 87
f 75 86 91
f 75 91 92
f 75 92 76
f 76 92 93
f 76 93 77
f 78 94 112
f 78 112 95
f 78 95 96
f 81 97 111
f 81 111 94
f 83 98 99
f 83 99 100
f 83 100 84
f 84 100 101
f 84 101 102
f 84 102 103
f 84 103 90
f 84 90 85
f 86 104 91
f 86 88 104
f 87 89 105
f 87 105 106
f 87 106 88
f 88 107 104
f 88 106 107
f 89 108 122
f 89 122 105
f 90 103 108
f 91 104 92
f 92 104 109
f 92 109 126
f 92 126 110
f 92 110 93
f 94 111 112
f 95 113 114
f 95 114 96
f 95 112 115
f 95 115 113
f 97 116 117
f 97 117 111
f 98 113 115
f 98 115 99
f 99 115 101
f 99 101 100
f 101 115 118
f 101 118 102
f 102 119 103
f 102 118 119
f 103 120 108
f 103 119 120
f 104 107 121
f 104 121 109
f 105 122 135
f 105 135 123
f 105 123 106
f 106 124 125
f 106 125 107
f 106 123 124
f 107 125 121
f 108 120 122
f 109 121 126
f 111 117 127
f 111 127 128
f 111 128 112
f 112 128 115
f 115 128 118
f 116 129 138
f 116 138 130
f 116 130 117
f 117 130 127
f 118 128 127
f 118 127 131
f 118 131 119
f 119 131 132
f 119 132 133
f 119 133 120
f 120 133 122
f 121 125 134
f 122 133 135
f 123 135 143
f 123 143 136
f 123 136 137
f 123 137 124
f 124 137 134
f 124 134 125
f 127 130 138
f 127 138 131
f 129 139 140
f 129 140 138
f 131 138 132
f 132 140 133
f 132 138 140
f 133 140 141
f 133 141 142
f 133 142 143
f 133 143 135
f 139 142 141
f 139 141 140

