# https://github.com/mikedh/trimesh
v 0.04651663 0.00987956 -0.05629907
v 0.05022269 0.00106476 -0.05629907
v 0.05022269 0.00106476 -0.04987336
v 0.04651663 0.00988157 -0.04987336
v 0.04651663 0.02161050 -0.05629907
v 0.05611050 0.00106476 -0.05629907
v 0.05611050 0.00106476 -0.04987336
v 0.04651663 0.02161050 -0.04987336
v 0.05161458 0.02161050 -0.05629907
v 0.05611050 0.01720411 -0.05629907
v 0.05611050 0.01720411 -0.04987336
v 0.05161458 0.02161050 -0.04987336
v 0.05272470 0.02153810 -0.05629907
v 0.05602973 0.01831425 -0.05629907
v 0.05609829 0.01737304 -0.04987336
v 0.05272470 0.02153810 -0.04987336
v 0.05375031 0.02127866 -0.05629907
v 0.05572449 0.01937613 -0.05629907
v 0.05598371 0.01847514 -0.04987336
v 0.05602973 0.01831425 -0.04987336
v 0.05375031 0.02127866 -0.04987336
v 0.05430537 0.02104939 -0.05629907
v 0.05572449 0.01937613 -0.04987336
v 0.05547373 0.01993120 -0.05629907
v 0.05551223 0.01984674 -0.04987336
v 0.05430537 0.02104939 -0.04987336
v 0.05491866 0.02049432 -0.05629907
v 0.05547373 0.01993120 -0.04987336
v 0.05491866 0.02049432 -0.04987336
f 1 2 3
f 1 3 4
f 1 4 8
f 1 8 5
f 1 5 9
f 1 9 13
f 1 13 17
f 1 17 22
f 1 22 27
f 1 27 24
f 1 24 18
f 1 18 14
f 1 14 10
f 1 10 6
f 1 6 2
f 2 6 7
f 2 7 3
f 3 7 11
f 3 11 15
f 3 15 20
f 3 20 19
f 3 19 23
f 3 23 25
f 3 25 28
f 3 28 29
f 3 29 26
f 3 26 21
f 3 21 16
f 3 16 12
f 3 12 8
f 3 8 4
f 5 8 12
f 5 12 9
f 6 10 11
f 6 11 7
f 9 12 16
f 9 16 13
f 10 14 15
f 10 15 11
f 13 16 21
f 13 21 17
f 14 18 19
f 14 19 20
f 14 20 15
f 17 21 26
f 17 26 22
f 18 23 19
f 18 24 25
f 18 25 23
f 22 26 29
f 22 29 27
f 24 27 29
f 24 29 28
f 24 28 25

