# https://github.com/mikedh/trimesh
v 0.05023225 0.00000569 -0.04987336
v 0.04490771 0.01133928 -0.04987336
v 0.05610941 0.00000569 -0.04987336
v 0.05023225 0.00000569 -0.00086705
v 0.05610941 0.01133928 -0.04987336
v 0.04490771 0.01133928 -0.00197893
v 0.05610941 0.00000569 -0.00086705
v 0.04490881 0.01133928 -0.00086705
v 0.05064453 0.00000569 0.00013610
v 0.04520486 0.01133928 -0.00003192
v 0.05610941 0.01133928 -0.00086705
v 0.05580349 0.00000569 0.00011139
v 0.05113246 0.00000569 0.00036836
v 0.05161382 0.00000569 0.00059568
v 0.04608972 0.01133928 0.00035353
v 0.05580349 0.01133928 0.00011139
v 0.05494385 0.00000569 0.00057096
v 0.05272346 0.00000569 0.00061050
v 0.04828598 0.01054376 0.00061050
v 0.04717634 0.01133928 0.00056108
v 0.05494385 0.01133928 0.00057096
v 0.05383311 0.00000569 0.00061050
v 0.04828598 0.01133928 0.00061050
v 0.05383311 0.01133928 0.00061050
f 1 2 5
f 1 5 3
f 1 3 7
f 1 7 12
f 1 12 17
f 1 17 22
f 1 22 18
f 1 18 14
f 1 14 13
f 1 13 9
f 1 9 4
f 1 4 6
f 1 6 2
f 2 6 8
f 2 8 10
f 2 10 15
f 2 15 20
f 2 20 23
f 2 23 24
f 2 24 21
f 2 21 16
f 2 16 11
f 2 11 5
f 3 5 11
f 3 11 7
f 4 8 6
f 4 9 10
f 4 10 8
f 7 11 16
f 7 16 12
f 9 13 10
f 10 13 14
f 10 14 15
f 12 16 21
f 12 21 17
f 14 18 19
f 14 19 20
f 14 20 15
f 17 21 24
f 17 24 22
f 18 22 24
f 18 24 23
f 18 23 19
f 19 23 20

