# https://github.com/mikedh/trimesh
v 0.05610889 -0.00987530 -0.00086571
v 0.05598912 -0.00987530 -0.00047760
v 0.05610889 -0.01720406 -0.00086571
v 0.05610889 -0.00987530 -0.03478739
v 0.05580462 -0.00987530 0.00011150
v 0.05580462 -0.01720406 0.00011150
v 0.05576416 -0.01831486 0.00008724
v 0.05602958 -0.01831486 -0.00086571
v 0.05607490 -0.01768881 -0.03478739
v 0.05610889 -0.01720406 -0.03478739
v 0.04652128 -0.00987530 -0.03478739
v 0.05546313 -0.00987530 0.00029516
v 0.05494361 -0.01720406 0.00057238
v 0.05494361 -0.01831486 0.00054813
v 0.05564925 -0.01920740 -0.00005830
v 0.05572370 -0.01937626 -0.00086571
v 0.05589687 -0.01877778 -0.03478739
v 0.05602958 -0.01831486 -0.03478739
v 0.03957658 -0.01420822 -0.03478739
v 0.04652128 -0.00987530 -0.00197807
v 0.05494361 -0.00987530 0.00057238
v 0.05383499 -0.01942451 0.00060704
v 0.05383499 -0.01831486 0.00061050
v 0.05504557 -0.01951640 0.00020506
v 0.05474131 -0.02032280 -0.00000978
v 0.05547284 -0.01993109 -0.00086571
v 0.05558289 -0.01968986 -0.03478739
v 0.05572370 -0.01937626 -0.03478739
v 0.03957658 -0.01420822 -0.00197807
v 0.03957658 -0.02160935 -0.03478739
v 0.03957658 -0.01421397 -0.00103897
v 0.03957658 -0.01421512 -0.00086571
v 0.04653908 -0.00987530 -0.00086571
v 0.05383499 -0.00987530 0.00061050
v 0.05161449 -0.02053416 0.00055159
v 0.05272474 -0.02053416 0.00052387
v 0.05391105 -0.02062950 0.00019120
v 0.05272474 -0.01942451 0.00061050
v 0.05359222 -0.02121534 -0.00008256
v 0.05430433 -0.02104993 -0.00086571
v 0.05491772 -0.02049396 -0.00086571
v 0.05523169 -0.02017691 -0.03478739
v 0.05547284 -0.01993109 -0.03478739
v 0.05161449 -0.02160935 -0.03478739
v 0.03957658 -0.02160935 -0.00086571
v 0.03957658 -0.01428519 -0.00026969
v 0.04660220 -0.00987530 -0.00028008
v 0.04895379 -0.00987530 0.00061050
v 0.03957658 -0.02036300 0.00056199
v 0.03957658 -0.02053416 0.00055159
v 0.03957658 -0.02122339 0.00016348
v 0.05161449 -0.02134974 0.00009071
v 0.05272474 -0.02131413 0.00006299
v 0.03957658 -0.01942451 0.00061050
v 0.05272474 -0.02153813 -0.00086571
v 0.05374921 -0.02127852 -0.00086571
v 0.05430433 -0.02104993 -0.03478739
v 0.05457299 -0.02080755 -0.03478739
v 0.05491772 -0.02049396 -0.03478739
v 0.05209840 -0.02157834 -0.03478739
v 0.05161449 -0.02160935 -0.00086571
v 0.03957658 -0.02134974 0.00009071
v 0.03957658 -0.01432654 -0.00012760
v 0.04664914 -0.00987530 -0.00018305
v 0.04828375 -0.00987530 0.00057238
v 0.03957658 -0.01609440 0.00061050
v 0.05272474 -0.02153813 -0.03478739
v 0.05374921 -0.02127852 -0.03478739
v 0.03957658 -0.01485954 0.00026050
v 0.04684658 -0.00987530 0.00004913
v 0.04784354 -0.00987530 0.00050654
v 0.03957658 -0.01592325 0.00059317
v 0.03957658 -0.01498590 0.00033327
f 1 2 3
f 1 3 10
f 1 10 4
f 1 4 11
f 1 11 20
f 1 20 33
f 1 33 47
f 1 47 64
f 1 64 70
f 1 70 71
f 1 71 65
f 1 65 48
f 1 48 34
f 1 34 21
f 1 21 12
f 1 12 5
f 1 5 2
f 2 5 6
f 2 6 3
f 3 6 7
f 3 7 8
f 3 8 9
f 3 9 10
f 4 10 9
f 4 9 18
f 4 18 17
f 4 17 28
f 4 28 27
f 4 27 43
f 4 43 42
f 4 42 59
f 4 59 58
f 4 58 57
f 4 57 68
f 4 68 67
f 4 67 60
f 4 60 44
f 4 44 30
f 4 30 19
f 4 19 11
f 5 12 6
f 6 12 13
f 6 13 14
f 6 14 7
f 7 15 8
f 7 14 15
f 8 15 16
f 8 16 17
f 8 17 18
f 8 18 9
f 11 19 29
f 11 29 20
f 12 21 13
f 13 22 14
f 13 21 34
f 13 34 23
f 13 23 22
f 14 22 24
f 14 24 15
f 15 25 26
f 15 26 16
f 15 24 25
f 16 26 27
f 16 27 28
f 16 28 17
f 19 30 45
f 19 45 62
f 19 62 51
f 19 51 50
f 19 50 49
f 19 49 54
f 19 54 66
f 19 66 72
f 19 72 73
f 19 73 69
f 19 69 63
f 19 63 46
f 19 46 32
f 19 32 31
f 19 31 29
f 20 29 31
f 20 31 32
f 20 32 33
f 22 35 36
f 22 36 37
f 22 37 24
f 22 23 38
f 22 38 35
f 23 34 48
f 23 48 66
f 23 66 54
f 23 54 38
f 24 37 25
f 25 37 39
f 25 39 40
f 25 40 41
f 25 41 26
f 26 41 42
f 26 42 43
f 26 43 27
f 30 44 61
f 30 61 45
f 32 46 47
f 32 47 33
f 35 49 50
f 35 50 51
f 35 51 52
f 35 52 36
f 35 38 49
f 36 52 53
f 36 53 37
f 37 53 39
f 38 54 49
f 39 53 55
f 39 55 56
f 39 56 40
f 40 56 68
f 40 68 57
f 40 57 58
f 40 58 41
f 41 58 59
f 41 59 42
f 44 60 61
f 45 61 52
f 45 52 62
f 46 63 47
f 47 63 64
f 48 65 66
f 51 62 52
f 52 61 53
f 53 61 55
f 55 61 60
f 55 60 67
f 55 67 68
f 55 68 56
f 63 69 70
f 63 70 64
f 65 71 72
f 65 72 66
f 69 73 71
f 69 71 70
f 71 73 72

