# https://github.com/mikedh/trimesh
v 0.05611050 0.01720424 -0.00086705
v 0.05611050 0.01134028 -0.00086705
v 0.05611050 0.01720424 -0.04987336
v 0.05602776 0.01831410 -0.00086705
v 0.05576091 0.01831410 0.00008668
v 0.05580435 0.01720424 0.00011139
v 0.05580435 0.01134028 0.00011139
v 0.05611050 0.01134028 -0.04987336
v 0.05602776 0.01831410 -0.04987336
v 0.05572368 0.01937570 -0.00086705
v 0.05564921 0.01920681 -0.00006156
v 0.05494175 0.01831410 0.00054626
v 0.05494175 0.01720424 0.00057096
v 0.05494175 0.01134028 0.00057096
v 0.04490909 0.01134028 -0.04987336
v 0.05572368 0.01937570 -0.04987336
v 0.05547338 0.01993063 -0.00086705
v 0.05473903 0.02032170 -0.00001215
v 0.05504518 0.01951544 0.00020034
v 0.05383092 0.01942396 0.00060556
v 0.05383092 0.01831410 0.00061050
v 0.05383092 0.01134028 0.00061050
v 0.03497779 0.01482066 -0.04986842
v 0.03590865 0.01480457 -0.04987336
v 0.04490909 0.01134028 -0.00086705
v 0.05547338 0.01993063 -0.04987336
v 0.05516102 0.02024831 -0.03478652
v 0.05491900 0.02049360 -0.00086705
v 0.05390952 0.02062831 0.00019046
v 0.05430462 0.02104853 -0.00086705
v 0.05359303 0.02121441 -0.00008627
v 0.05272422 0.01942396 0.00061050
v 0.05272422 0.02053382 0.00052155
v 0.05161339 0.02053382 0.00055120
v 0.04828296 0.01134028 0.00061050
v 0.03497779 0.01533638 -0.04987336
v 0.03497779 0.01482066 -0.00196904
v 0.04520696 0.01134028 -0.00003192
v 0.03497779 0.01483775 -0.00086705
v 0.05491900 0.02049360 -0.04987336
v 0.05272422 0.02131293 0.00006198
v 0.05375024 0.02127774 -0.00086705
v 0.05430462 0.02104853 -0.04987336
v 0.05421981 0.02108372 -0.04987336
v 0.05272422 0.02153711 -0.00086705
v 0.03829787 0.01942396 0.00061050
v 0.05161339 0.02134912 0.00008668
v 0.03497779 0.02054286 0.00054626
v 0.03497779 0.02053382 0.00055120
v 0.04717419 0.01165696 0.00061050
v 0.04717419 0.01134028 0.00056108
v 0.03497779 0.02161050 -0.04987336
v 0.03497779 0.01519865 0.00010645
v 0.04608819 0.01134028 0.00035353
v 0.05161339 0.02161050 -0.00086705
v 0.05375024 0.02127774 -0.04987336
v 0.05272422 0.02153711 -0.04987336
v 0.03497779 0.01943602 0.00060062
v 0.03829787 0.01609639 0.00061050
v 0.03497779 0.02135214 0.00007680
v 0.03497779 0.02134912 0.00008668
v 0.03497779 0.01720424 0.00059568
v 0.03497779 0.01609639 0.00056108
v 0.03497779 0.02161050 -0.00086705
v 0.05161339 0.02161050 -0.04987336
v 0.03497779 0.01942396 0.00060062
f 1 2 8
f 1 8 3
f 1 3 9
f 1 9 4
f 1 4 5
f 1 5 6
f 1 6 7
f 1 7 2
f 2 7 14
f 2 14 22
f 2 22 35
f 2 35 51
f 2 51 54
f 2 54 38
f 2 38 25
f 2 25 15
f 2 15 8
f 3 8 15
f 3 15 24
f 3 24 36
f 3 36 52
f 3 52 65
f 3 65 57
f 3 57 56
f 3 56 44
f 3 44 43
f 3 43 40
f 3 40 26
f 3 26 16
f 3 16 9
f 4 9 16
f 4 16 10
f 4 10 11
f 4 11 5
f 5 11 12
f 5 12 6
f 6 12 13
f 6 13 14
f 6 14 7
f 10 16 26
f 10 26 17
f 10 17 11
f 11 17 18
f 11 18 19
f 11 19 12
f 12 19 20
f 12 20 13
f 13 20 21
f 13 21 22
f 13 22 14
f 15 23 24
f 15 25 37
f 15 37 23
f 17 26 27
f 17 27 28
f 17 28 18
f 18 29 19
f 18 28 30
f 18 30 31
f 18 31 29
f 19 29 20
f 20 32 21
f 20 29 33
f 20 33 34
f 20 34 32
f 21 32 46
f 21 46 59
f 21 59 50
f 21 50 35
f 21 35 22
f 23 36 24
f 23 37 39
f 23 39 53
f 23 53 63
f 23 63 62
f 23 62 66
f 23 66 58
f 23 58 49
f 23 49 48
f 23 48 61
f 23 61 60
f 23 60 64
f 23 64 52
f 23 52 36
f 25 38 39
f 25 39 37
f 26 40 27
f 27 40 28
f 28 40 43
f 28 43 30
f 29 31 41
f 29 41 33
f 30 42 31
f 30 43 44
f 30 44 42
f 31 42 45
f 31 45 41
f 32 34 49
f 32 49 46
f 33 41 47
f 33 47 34
f 34 47 48
f 34 48 49
f 35 50 51
f 38 53 39
f 38 54 53
f 41 45 55
f 41 55 47
f 42 44 56
f 42 56 57
f 42 57 45
f 45 57 65
f 45 65 55
f 46 49 58
f 46 58 66
f 46 66 59
f 47 55 60
f 47 60 61
f 47 61 48
f 50 59 62
f 50 62 63
f 50 63 51
f 51 63 54
f 52 64 55
f 52 55 65
f 53 54 63
f 55 64 60
f 59 66 62

