# https://github.com/mikedh/trimesh
v -0.03279251 0.01942408 0.00060493
v -0.03279251 0.01720419 0.00060493
v -0.03279251 0.02048879 0.00054922
v -0.03829789 0.01942408 0.00061050
v -0.03829789 0.01720419 0.00061050
v -0.04867869 0.01236819 0.00061050
v -0.04756939 0.01236819 0.00059936
v -0.03279251 0.01600468 0.00010914
v -0.03279251 0.02053402 0.00054365
v -0.03829789 0.02053402 0.00054922
v -0.05272099 0.01942408 0.00061050
v -0.05383257 0.01236819 0.00061050
v -0.04639619 0.01236819 0.00034868
v -0.04556765 0.01236819 -0.00003569
v -0.03279251 0.01553067 -0.00086572
v -0.03279251 0.02131560 0.00010914
v -0.05161170 0.02053402 0.00054922
v -0.05383257 0.01942408 0.00060493
v -0.05383257 0.01831413 0.00061050
v -0.05494186 0.01236819 0.00057150
v -0.04535309 0.01236819 -0.00019167
v -0.04524581 0.01236819 -0.00050920
v -0.04522527 0.01236819 -0.00086572
v -0.04522071 0.01236819 -0.00135037
v -0.03279251 0.01552977 -0.00197985
v -0.03279251 0.02134907 0.00008686
v -0.05161170 0.02134907 0.00008686
v -0.05272099 0.02053402 0.00052137
v -0.05494186 0.01720419 0.00057150
v -0.05390789 0.02062901 0.00018713
v -0.05504229 0.01951544 0.00020384
v -0.05494186 0.01831413 0.00054365
v -0.05580237 0.01236819 0.00010914
v -0.04521842 0.01236819 -0.05629907
v -0.03279479 0.01549720 -0.05629907
v -0.03279251 0.01552253 -0.03416138
v -0.03279251 0.02160869 -0.00086572
v -0.05161170 0.02160869 -0.00086572
v -0.05272099 0.02131289 0.00005901
v -0.05359063 0.02121429 -0.00008583
v -0.05580237 0.01720419 0.00010914
v -0.05473872 0.02032235 -0.00001341
v -0.05564716 0.01920697 -0.00006355
v -0.05576128 0.01831413 0.00008686
v -0.05610822 0.01236819 -0.00086572
v -0.05610594 0.01236819 -0.05629907
v -0.03279479 0.02160869 -0.05629907
v -0.03279251 0.01552253 -0.03478529
v -0.03279251 0.02160869 -0.03478529
v -0.05272099 0.02153723 -0.00086572
v -0.05161170 0.02160869 -0.05629907
v -0.05167789 0.02160598 -0.05629907
v -0.05374812 0.02127761 -0.00086572
v -0.05430277 0.02104874 -0.00086572
v -0.05610822 0.01720419 -0.00086572
v -0.05491676 0.02049422 -0.00086572
v -0.05547141 0.01993065 -0.00086572
v -0.05572248 0.01937613 -0.00086572
v -0.05602605 0.01831413 -0.00086572
v -0.05610822 0.01236819 -0.03478529
v -0.05610594 0.01720328 -0.05629907
v -0.05272099 0.02153723 -0.03478529
v -0.05278262 0.02152185 -0.05629907
v -0.05271871 0.02153723 -0.05629907
v -0.05374812 0.02127761 -0.03478529
v -0.05430277 0.02104874 -0.05629907
v -0.05433929 0.02101618 -0.05629907
v -0.05603975 0.01814497 -0.04987056
v -0.05610822 0.01720419 -0.03478529
v -0.05491676 0.02049422 -0.03478529
v -0.05522946 0.02017671 -0.03478529
v -0.05547141 0.01993065 -0.03478529
v -0.05558097 0.01968913 -0.03478529
v -0.05572248 0.01937613 -0.05629907
v -0.05589367 0.01877729 -0.03478529
v -0.05602605 0.01831413 -0.03478529
v -0.05602605 0.01831323 -0.05629907
v -0.05374812 0.02127670 -0.05629907
v -0.05491447 0.02049332 -0.05629907
v -0.05547141 0.01992975 -0.05629907
f 1 2 8
f 1 8 15
f 1 15 25
f 1 25 36
f 1 36 48
f 1 48 49
f 1 49 37
f 1 37 26
f 1 26 16
f 1 16 9
f 1 9 3
f 1 3 4
f 1 4 5
f 1 5 2
f 2 5 6
f 2 6 7
f 2 7 8
f 3 9 10
f 3 10 4
f 4 10 17
f 4 17 11
f 4 11 19
f 4 19 12
f 4 12 6
f 4 6 5
f 6 12 20
f 6 20 33
f 6 33 45
f 6 45 60
f 6 60 46
f 6 46 34
f 6 34 24
f 6 24 23
f 6 23 22
f 6 22 21
f 6 21 14
f 6 14 13
f 6 13 7
f 7 13 8
f 8 13 14
f 8 14 15
f 9 16 10
f 10 16 17
f 11 18 19
f 11 17 18
f 12 19 29
f 12 29 20
f 14 21 15
f 15 21 22
f 15 22 23
f 15 23 24
f 15 24 25
f 16 26 27
f 16 27 17
f 17 27 28
f 17 28 18
f 18 29 19
f 18 28 30
f 18 30 31
f 18 31 32
f 18 32 29
f 20 29 41
f 20 41 33
f 24 34 35
f 24 35 25
f 25 35 36
f 26 37 38
f 26 38 27
f 27 38 39
f 27 39 28
f 28 39 40
f 28 40 30
f 29 32 41
f 30 40 42
f 30 42 31
f 31 42 43
f 31 43 44
f 31 44 32
f 32 44 41
f 33 41 55
f 33 55 45
f 34 46 61
f 34 61 77
f 34 77 74
f 34 74 80
f 34 80 79
f 34 79 67
f 34 67 66
f 34 66 78
f 34 78 63
f 34 63 64
f 34 64 52
f 34 52 51
f 34 51 47
f 34 47 35
f 35 47 49
f 35 49 48
f 35 48 36
f 37 49 47
f 37 47 51
f 37 51 38
f 38 50 39
f 38 51 52
f 38 52 50
f 39 50 40
f 40 50 53
f 40 53 54
f 40 54 42
f 41 44 55
f 42 54 56
f 42 56 57
f 42 57 43
f 43 57 58
f 43 58 59
f 43 59 44
f 44 59 55
f 45 55 69
f 45 69 60
f 46 60 69
f 46 69 61
f 50 52 62
f 50 62 63
f 50 63 53
f 52 64 62
f 53 63 65
f 53 65 66
f 53 66 54
f 54 66 67
f 54 67 56
f 55 59 68
f 55 68 69
f 56 67 70
f 56 70 71
f 56 71 57
f 57 71 72
f 57 72 73
f 57 73 58
f 58 73 74
f 58 74 75
f 58 75 59
f 59 75 76
f 59 76 68
f 61 69 68
f 61 68 77
f 62 64 63
f 63 78 65
f 65 78 66
f 67 79 70
f 68 76 77
f 70 79 80
f 70 80 71
f 71 80 72
f 72 80 73
f 73 80 74
f 74 77 76
f 74 76 75

