# https://github.com/mikedh/trimesh
v -0.00159146 0.01515513 -0.04987336
v -0.00159146 0.01515513 -0.03479086
v -0.00159146 0.02161050 -0.04987336
v 0.01163876 0.00990305 -0.04987336
v -0.00159146 0.02161050 -0.03479086
v 0.01163876 0.00990305 -0.03479086
v 0.03497779 0.02161050 -0.04987336
v 0.02450028 0.00990305 -0.04987336
v 0.03497779 0.02161050 -0.03479086
v 0.02450028 0.00990305 -0.03479086
v 0.03497779 0.01533620 -0.04987336
v 0.03496347 0.01482050 -0.04987336
v 0.03497779 0.01482050 -0.04987041
v 0.03497779 0.01482050 -0.03479086
f 1 2 5
f 1 5 3
f 1 3 7
f 1 7 11
f 1 11 12
f 1 12 8
f 1 8 4
f 1 4 6
f 1 6 2
f 2 6 10
f 2 10 14
f 2 14 9
f 2 9 5
f 3 5 9
f 3 9 7
f 4 8 10
f 4 10 6
f 7 9 14
f 7 14 13
f 7 13 11
f 8 12 13
f 8 13 14
f 8 14 10
f 11 13 12

