# https://github.com/mikedh/trimesh
v -0.03789247 -0.02161050 -0.03478739
v -0.03789247 -0.02161050 -0.00086571
v -0.03789247 -0.01554008 -0.03478739
v -0.00159502 -0.02161050 -0.03478739
v -0.03789247 -0.02134966 0.00009071
v -0.00159502 -0.02161050 -0.00086571
v -0.03789247 -0.01554008 -0.00197807
v -0.02350851 -0.01027105 -0.03478739
v -0.00159502 -0.01515492 -0.03478739
v -0.03789247 -0.02105441 0.00026050
v -0.00159502 -0.02134966 0.00009071
v -0.03789247 -0.01554119 -0.00086571
v -0.02350851 -0.01027105 -0.00197807
v -0.01133830 -0.01027105 -0.03478739
v -0.00159502 -0.01515492 -0.00086571
v -0.03789247 -0.02053494 0.00055159
v -0.00159502 -0.02129527 0.00012190
v -0.00159502 -0.02053494 0.00055159
v -0.03789247 -0.01603734 0.00013229
v -0.02279429 -0.01027105 0.00019467
v -0.02339125 -0.01027105 -0.00059196
v -0.02350141 -0.01027105 -0.00086571
v -0.01133830 -0.01027105 -0.00197807
v -0.00159502 -0.01534805 0.00003180
v -0.01134185 -0.01027105 -0.00086571
v -0.03789247 -0.01942497 0.00061050
v -0.00159502 -0.01942497 0.00061050
v -0.03789247 -0.01720392 0.00060704
v -0.02164301 -0.01027105 0.00058278
v -0.02263084 -0.01027105 0.00027783
v -0.00159502 -0.01609395 0.00049268
v -0.01176825 -0.01027105 0.00009764
v -0.01274898 -0.01027105 0.00048228
v -0.03789247 -0.01831500 0.00061050
v -0.00159502 -0.01720392 0.00061050
v -0.02053436 -0.01027105 0.00061050
v -0.02136940 -0.01027105 0.00060704
v -0.00166608 -0.01609395 0.00049961
v -0.01276674 -0.01054521 0.00056891
v -0.01387539 -0.01027105 0.00060704
v -0.01387539 -0.01054521 0.00061050
v -0.01498759 -0.01027105 0.00061050
f 1 2 5
f 1 5 10
f 1 10 16
f 1 16 26
f 1 26 34
f 1 34 28
f 1 28 19
f 1 19 12
f 1 12 7
f 1 7 3
f 1 3 8
f 1 8 14
f 1 14 9
f 1 9 4
f 1 4 6
f 1 6 2
f 2 6 11
f 2 11 5
f 3 7 13
f 3 13 8
f 4 9 15
f 4 15 24
f 4 24 31
f 4 31 35
f 4 35 27
f 4 27 18
f 4 18 17
f 4 17 11
f 4 11 6
f 5 11 10
f 7 12 13
f 8 13 22
f 8 22 21
f 8 21 20
f 8 20 30
f 8 30 29
f 8 29 37
f 8 37 36
f 8 36 42
f 8 42 40
f 8 40 33
f 8 33 32
f 8 32 25
f 8 25 23
f 8 23 14
f 9 14 23
f 9 23 15
f 10 11 17
f 10 17 18
f 10 18 16
f 12 19 20
f 12 20 21
f 12 21 22
f 12 22 13
f 15 23 25
f 15 25 24
f 16 18 27
f 16 27 26
f 19 28 29
f 19 29 30
f 19 30 20
f 24 25 32
f 24 32 33
f 24 33 31
f 26 27 35
f 26 35 41
f 26 41 42
f 26 42 36
f 26 36 34
f 28 34 36
f 28 36 37
f 28 37 29
f 31 38 35
f 31 33 39
f 31 39 38
f 33 40 39
f 35 38 40
f 35 40 41
f 38 39 40
f 40 42 41

