# https://github.com/mikedh/trimesh
v -0.01016688 0.01133928 -0.03478529
v -0.01130134 0.01030965 -0.00086572
v -0.01522822 0.00000448 -0.00086572
v -0.01522399 0.00000670 -0.05629907
v -0.01016688 0.01133928 -0.05629907
v -0.02457908 0.01133928 -0.03478529
v -0.01411069 0.01030965 0.00061050
v -0.01387646 0.01030965 0.00060493
v -0.01300162 0.01030965 0.00057150
v -0.01275187 0.01030965 0.00049352
v -0.01185728 0.01030965 0.00017599
v -0.01175287 0.01030965 0.00010357
v -0.01131827 0.01030965 -0.00080444
v -0.01538485 0.00000448 -0.00000227
v -0.01522822 0.00000448 -0.03478529
v -0.01977737 0.00000670 -0.05629907
v -0.02458050 0.01133928 -0.05629907
v -0.02353916 0.01030965 -0.00086572
v -0.02280543 0.01030965 0.00019827
v -0.02164415 0.01030965 0.00058265
v -0.02053368 0.01030965 0.00061050
v -0.01977737 0.00000448 -0.00086572
v -0.01720648 0.00000448 0.00061050
v -0.01387646 0.00943424 0.00059936
v -0.01609600 0.00000448 0.00046009
v -0.01977737 0.00000448 -0.03478529
v -0.01932302 0.00000448 0.00014256
v -0.01881505 0.00000448 0.00037653
v -0.01831413 0.00000448 0.00060493
v -0.02164415 0.00943424 0.00051580
v -0.02053368 0.00943424 0.00061050
f 1 2 3
f 1 3 4
f 1 4 5
f 1 5 17
f 1 17 6
f 1 6 21
f 1 21 7
f 1 7 8
f 1 8 9
f 1 9 10
f 1 10 11
f 1 11 12
f 1 12 13
f 1 13 2
f 2 13 14
f 2 14 3
f 3 15 4
f 3 14 25
f 3 25 23
f 3 23 29
f 3 29 28
f 3 28 27
f 3 27 22
f 3 22 26
f 3 26 15
f 4 16 17
f 4 17 5
f 4 15 26
f 4 26 16
f 6 18 19
f 6 19 20
f 6 20 21
f 6 17 22
f 6 22 18
f 7 23 24
f 7 24 8
f 7 21 31
f 7 31 23
f 8 24 9
f 9 24 23
f 9 23 25
f 9 25 10
f 10 25 11
f 11 14 12
f 11 25 14
f 12 14 13
f 16 26 17
f 17 26 22
f 18 22 27
f 18 27 19
f 19 27 28
f 19 28 29
f 19 29 30
f 19 30 20
f 20 29 31
f 20 31 21
f 20 30 29
f 23 31 29

