# https://github.com/mikedh/trimesh
v 0.04651974 -0.00987530 -0.03478739
v 0.05023175 0.00000347 -0.03478739
v 0.05611050 -0.00987530 -0.03478739
v 0.04651974 -0.00987530 -0.00197807
v 0.05611050 0.00000347 -0.03478739
v 0.05023175 0.00000347 -0.00086571
v 0.05611050 -0.00987530 -0.00086571
v 0.04653852 -0.00987530 -0.00089343
v 0.05611050 0.00000347 -0.00086571
v 0.04653946 -0.00987530 -0.00086571
v 0.04660236 -0.00987530 -0.00028008
v 0.05044016 0.00000347 -0.00035978
v 0.05598939 -0.00987530 -0.00047760
v 0.05580445 0.00000347 0.00011150
v 0.04664929 -0.00987530 -0.00018305
v 0.05064576 0.00000347 0.00013922
v 0.05580445 -0.00987530 0.00011150
v 0.05546367 -0.00987530 0.00029516
v 0.05494451 0.00000347 0.00057238
v 0.04684644 -0.00987530 0.00004913
v 0.05161460 0.00000347 0.00060010
v 0.05494451 -0.00987530 0.00057238
v 0.05383486 0.00000347 0.00061050
v 0.04784532 -0.00987530 0.00050654
v 0.04828562 -0.00987530 0.00057238
v 0.04895498 -0.00987530 0.00061050
v 0.05272426 0.00000347 0.00061050
v 0.05383486 -0.00987530 0.00061050
f 1 2 5
f 1 5 3
f 1 3 7
f 1 7 13
f 1 13 17
f 1 17 18
f 1 18 22
f 1 22 28
f 1 28 26
f 1 26 25
f 1 25 24
f 1 24 20
f 1 20 15
f 1 15 11
f 1 11 10
f 1 10 8
f 1 8 4
f 1 4 6
f 1 6 2
f 2 6 12
f 2 12 16
f 2 16 21
f 2 21 27
f 2 27 23
f 2 23 19
f 2 19 14
f 2 14 9
f 2 9 5
f 3 5 9
f 3 9 7
f 4 8 6
f 6 8 10
f 6 10 11
f 6 11 12
f 7 9 13
f 9 14 13
f 11 15 16
f 11 16 12
f 13 14 17
f 14 18 17
f 14 19 18
f 15 20 16
f 16 20 21
f 18 19 22
f 19 23 28
f 19 28 22
f 20 24 21
f 21 24 25
f 21 25 26
f 21 26 27
f 23 27 26
f 23 26 28

