# https://github.com/mikedh/trimesh
v 0.04575774 -0.02277525 -0.06189476
v 0.04575774 -0.02277525 -0.06302471
v 0.04573518 -0.02277525 -0.06080517
v 0.04560997 -0.02719447 -0.06080517
v 0.04573857 -0.02277525 -0.06413448
v 0.04560997 -0.02719447 -0.06413448
v 0.04573405 -0.02277525 -0.06079294
v 0.04555921 -0.02719447 -0.06013625
v 0.04554342 -0.02790570 -0.06017416
v 0.04555921 -0.02798398 -0.06080517
v 0.04561561 -0.02277525 -0.06486271
v 0.04554342 -0.02790570 -0.06477466
v 0.04555921 -0.02719447 -0.06481685
v 0.04555921 -0.02798398 -0.06413448
v 0.04561110 -0.02277525 -0.06009773
v 0.04495459 -0.02719447 -0.05970641
v 0.04502678 -0.02828707 -0.05987211
v 0.04470530 -0.02908661 -0.05998278
v 0.04541257 -0.02853864 -0.06080517
v 0.04495459 -0.02719447 -0.06527726
v 0.04495459 -0.02277525 -0.06532312
v 0.04541257 -0.02853864 -0.06413448
v 0.04470530 -0.02908661 -0.06497643
v 0.04502678 -0.02828707 -0.06509627
v 0.04559982 -0.02277525 -0.06008978
v 0.04495459 -0.02277525 -0.05965566
v 0.04384462 -0.02719447 -0.05938968
v 0.04384462 -0.02830447 -0.05941108
v 0.04384462 -0.02921775 -0.05984154
v 0.04384462 -0.02957504 -0.06080517
v 0.04485758 -0.02919969 -0.06080517
v 0.04384462 -0.02830447 -0.06558665
v 0.04384462 -0.02719447 -0.06561050
v 0.04384462 -0.02277525 -0.06561050
v 0.04485758 -0.02919969 -0.06413448
v 0.04384462 -0.02957504 -0.06413448
v 0.04384462 -0.02921775 -0.06512624
v 0.04493429 -0.02277525 -0.05965015
v 0.04273465 -0.02830447 -0.05940374
v 0.04384462 -0.02277525 -0.05936583
v 0.04273465 -0.02277525 -0.05936400
v 0.03607595 -0.02719447 -0.05938968
v 0.04273465 -0.02923515 -0.05983359
v 0.04273465 -0.02961050 -0.06080517
v 0.04273465 -0.02923515 -0.06513296
v 0.04273465 -0.02830447 -0.06559277
v 0.03607595 -0.02719447 -0.06561050
v 0.03607595 -0.02277525 -0.06561050
v 0.04273465 -0.02961050 -0.06413448
v 0.03718592 -0.02830447 -0.05940374
v 0.03716562 -0.02277525 -0.05936400
v 0.03607595 -0.02277525 -0.05936645
v 0.03496598 -0.02277525 -0.05972720
v 0.03496598 -0.02719447 -0.05979507
v 0.03607595 -0.02830447 -0.05941475
v 0.03718592 -0.02923515 -0.05983359
v 0.03718592 -0.02961050 -0.06080517
v 0.03718592 -0.02923515 -0.06513296
v 0.03718592 -0.02830447 -0.06559277
v 0.03607595 -0.02830447 -0.06558359
v 0.03496598 -0.02719447 -0.06517821
v 0.03498628 -0.02277525 -0.06525342
v 0.03718592 -0.02961050 -0.06413448
v 0.03495470 -0.02277525 -0.05973515
v 0.03434782 -0.02277525 -0.06016805
v 0.03440422 -0.02778259 -0.06023347
v 0.03491070 -0.02821347 -0.05991063
v 0.03524460 -0.02907859 -0.05998767
v 0.03607595 -0.02921106 -0.05984520
v 0.03607595 -0.02956299 -0.06080517
v 0.03607595 -0.02921106 -0.06512318
v 0.03524460 -0.02907859 -0.06497215
v 0.03491070 -0.02821347 -0.06505470
v 0.03440422 -0.02778259 -0.06470862
v 0.03435346 -0.02277525 -0.06479361
v 0.03496598 -0.02277525 -0.06524547
v 0.03607595 -0.02956299 -0.06413448
v 0.03425984 -0.02277525 -0.06080517
v 0.03455200 -0.02835465 -0.06080517
v 0.03423389 -0.02277525 -0.06191555
v 0.03440084 -0.02779932 -0.06080517
v 0.03510698 -0.02918764 -0.06080517
v 0.03510698 -0.02918764 -0.06413448
v 0.03455200 -0.02835465 -0.06413448
v 0.03440084 -0.02779932 -0.06413448
v 0.03423389 -0.02277525 -0.06304489
v 0.03425533 -0.02277525 -0.06414548
v 0.03434331 -0.02277525 -0.06478505
f 1 2 5
f 1 5 11
f 1 11 21
f 1 21 34
f 1 34 48
f 1 48 62
f 1 62 76
f 1 76 75
f 1 75 88
f 1 88 87
f 1 87 86
f 1 86 80
f 1 80 78
f 1 78 65
f 1 65 64
f 1 64 53
f 1 53 52
f 1 52 51
f 1 51 41
f 1 41 40
f 1 40 38
f 1 38 26
f 1 26 25
f 1 25 15
f 1 15 7
f 1 7 3
f 1 3 4
f 1 4 6
f 1 6 2
f 2 6 5
f 3 7 8
f 3 8 9
f 3 9 4
f 4 10 14
f 4 14 6
f 4 9 10
f 5 6 12
f 5 12 13
f 5 13 11
f 6 14 12
f 7 15 8
f 8 15 16
f 8 16 9
f 9 16 17
f 9 17 18
f 9 18 19
f 9 19 10
f 10 19 22
f 10 22 14
f 11 13 20
f 11 20 21
f 12 22 23
f 12 23 24
f 12 24 20
f 12 20 13
f 12 14 22
f 15 25 16
f 16 25 26
f 16 26 27
f 16 27 28
f 16 28 17
f 17 28 18
f 18 28 29
f 18 29 30
f 18 30 31
f 18 31 19
f 19 31 35
f 19 35 22
f 20 24 32
f 20 32 33
f 20 33 21
f 21 33 34
f 22 35 23
f 23 32 24
f 23 35 36
f 23 36 37
f 23 37 32
f 26 38 27
f 27 39 28
f 27 38 40
f 27 40 41
f 27 41 51
f 27 51 42
f 27 42 50
f 27 50 39
f 28 39 43
f 28 43 29
f 29 43 44
f 29 44 30
f 30 44 49
f 30 49 36
f 30 36 35
f 30 35 31
f 32 37 45
f 32 45 46
f 32 46 33
f 33 46 59
f 33 59 47
f 33 47 48
f 33 48 34
f 36 49 37
f 37 49 45
f 39 50 56
f 39 56 43
f 42 51 52
f 42 52 53
f 42 53 54
f 42 54 55
f 42 55 50
f 43 56 57
f 43 57 44
f 44 57 63
f 44 63 49
f 45 49 63
f 45 63 58
f 45 58 59
f 45 59 46
f 47 59 60
f 47 60 61
f 47 61 62
f 47 62 48
f 50 55 56
f 53 64 54
f 54 64 65
f 54 65 66
f 54 66 67
f 54 67 55
f 55 67 68
f 55 68 69
f 55 69 56
f 56 69 57
f 57 69 70
f 57 70 77
f 57 77 63
f 58 63 71
f 58 71 60
f 58 60 59
f 60 71 72
f 60 72 73
f 60 73 61
f 61 73 74
f 61 74 75
f 61 75 76
f 61 76 62
f 63 77 71
f 65 78 66
f 66 79 68
f 66 68 67
f 66 78 80
f 66 80 81
f 66 81 79
f 68 82 70
f 68 70 69
f 68 79 82
f 70 82 83
f 70 83 77
f 71 77 72
f 72 77 83
f 72 83 84
f 72 84 74
f 72 74 73
f 74 84 85
f 74 85 86
f 74 86 87
f 74 87 88
f 74 88 75
f 79 81 85
f 79 85 84
f 79 84 83
f 79 83 82
f 80 86 85
f 80 85 81

