# https://github.com/mikedh/trimesh
v -0.05611050 -0.01030574 -0.03478739
v -0.05611050 0.00000347 -0.03478739
v -0.04745120 -0.01030574 -0.03478739
v -0.05611050 -0.01030574 -0.00086571
v -0.05122179 0.00000347 -0.03478739
v -0.05611050 0.00000347 -0.00086571
v -0.04745120 -0.01030574 -0.00197807
v -0.05580448 -0.01030574 0.00011150
v -0.05122179 0.00000347 -0.00197807
v -0.05580448 0.00000347 0.00011150
v -0.05122264 0.00000347 -0.00142362
v -0.05122433 0.00000347 -0.00086571
v -0.04745968 -0.01030574 -0.00086571
v -0.05562053 -0.01030574 0.00021199
v -0.05537215 0.00000347 0.00034367
v -0.05169820 0.00000347 0.00014962
v -0.04822261 -0.01030574 0.00020853
v -0.05494491 -0.01030574 0.00057238
v -0.05494491 0.00000347 0.00057238
v -0.05272477 0.00000347 0.00061050
v -0.04939583 -0.00943478 0.00053080
v -0.04939583 -0.01030574 0.00058971
v -0.05383441 -0.01030574 0.00061050
v -0.05383441 0.00000347 0.00061050
v -0.05050548 -0.00943478 0.00061050
v -0.05050548 -0.01030574 0.00061050
f 1 2 5
f 1 5 3
f 1 3 7
f 1 7 13
f 1 13 17
f 1 17 22
f 1 22 26
f 1 26 23
f 1 23 18
f 1 18 14
f 1 14 8
f 1 8 4
f 1 4 6
f 1 6 2
f 2 6 10
f 2 10 15
f 2 15 19
f 2 19 24
f 2 24 20
f 2 20 16
f 2 16 12
f 2 12 11
f 2 11 9
f 2 9 5
f 3 5 9
f 3 9 7
f 4 8 10
f 4 10 6
f 7 9 11
f 7 11 12
f 7 12 13
f 8 14 10
f 10 14 15
f 12 16 13
f 13 16 17
f 14 18 19
f 14 19 15
f 16 20 17
f 17 20 21
f 17 21 22
f 18 23 24
f 18 24 19
f 20 24 23
f 20 23 26
f 20 26 25
f 20 25 22
f 20 22 21
f 22 25 26

