# https://github.com/mikedh/trimesh
v -0.00159146 -0.02161050 -0.05629907
v -0.00159146 -0.02161050 -0.03479086
v -0.00159146 -0.01515204 -0.05629907
v 0.03682886 -0.02161050 -0.05629907
v -0.00159146 -0.01515564 -0.03479086
v 0.03682886 -0.02161050 -0.03479086
v 0.00886732 -0.01242881 -0.03479086
v 0.00886732 -0.01242881 -0.04987145
v 0.00885604 -0.01243600 -0.05629907
v 0.03682886 -0.01470177 -0.05629907
v 0.03682886 -0.01469368 -0.03479086
v 0.02743062 -0.01242881 -0.03479086
v 0.02743062 -0.01242881 -0.04987145
v 0.02744943 -0.01243600 -0.05629907
v 0.03682886 -0.01469907 -0.05600643
v 0.03682886 -0.01469368 -0.05525482
f 1 2 5
f 1 5 3
f 1 3 9
f 1 9 14
f 1 14 10
f 1 10 4
f 1 4 6
f 1 6 2
f 2 6 11
f 2 11 12
f 2 12 7
f 2 7 5
f 3 5 7
f 3 7 8
f 3 8 9
f 4 10 15
f 4 15 16
f 4 16 11
f 4 11 6
f 7 12 13
f 7 13 8
f 8 13 14
f 8 14 9
f 10 14 15
f 11 16 13
f 11 13 12
f 13 16 14
f 14 16 15

