# https://github.com/mikedh/trimesh
v -0.03423349 -0.02276448 -0.06190562
v -0.03423349 -0.02276448 -0.06302460
v -0.03425831 -0.02276448 -0.06080559
v -0.03440386 -0.02778306 -0.06023325
v -0.03440048 -0.02779914 -0.06080559
v -0.03425380 -0.02276448 -0.06413442
v -0.03440048 -0.02779914 -0.06413442
v -0.03440386 -0.02778306 -0.06470859
v -0.03434632 -0.02276448 -0.06016722
v -0.03496576 -0.02719469 -0.05979483
v -0.03491047 -0.02821328 -0.05991040
v -0.03524445 -0.02907842 -0.05998744
v -0.03455167 -0.02835468 -0.06080559
v -0.03434180 -0.02276448 -0.06478624
v -0.03455167 -0.02835468 -0.06413442
v -0.03524445 -0.02907842 -0.06497213
v -0.03491047 -0.02821328 -0.06505468
v -0.03496576 -0.02719469 -0.06517819
v -0.03496576 -0.02276448 -0.05972635
v -0.03607602 -0.02719469 -0.05939004
v -0.03607602 -0.02830442 -0.05941450
v -0.03607602 -0.02921110 -0.05984497
v -0.03607602 -0.02956292 -0.06080559
v -0.03510680 -0.02918765 -0.06080559
v -0.03496576 -0.02276448 -0.06524607
v -0.03510680 -0.02918765 -0.06413442
v -0.03607602 -0.02956292 -0.06413442
v -0.03607602 -0.02921110 -0.06512316
v -0.03607602 -0.02830442 -0.06558359
v -0.03607602 -0.02719469 -0.06560989
v -0.03497479 -0.02276448 -0.05972329
v -0.03718515 -0.02830442 -0.05940349
v -0.03607602 -0.02276448 -0.05936619
v -0.03718515 -0.02276448 -0.05936375
v -0.04384444 -0.02719469 -0.05939004
v -0.03718515 -0.02923523 -0.05983397
v -0.03718515 -0.02960983 -0.06080559
v -0.03607602 -0.02276448 -0.06560989
v -0.03718515 -0.02960983 -0.06413442
v -0.03718515 -0.02923523 -0.06513294
v -0.03718515 -0.02830442 -0.06559277
v -0.04384444 -0.02719469 -0.06560989
v -0.04273418 -0.02830442 -0.05940349
v -0.04274433 -0.02276448 -0.05936375
v -0.04384444 -0.02276448 -0.05936558
v -0.04495469 -0.02276448 -0.05965542
v -0.04495469 -0.02719469 -0.05970617
v -0.04384444 -0.02830442 -0.05941144
v -0.04273418 -0.02923523 -0.05983397
v -0.04273418 -0.02960983 -0.06080559
v -0.04384444 -0.02276448 -0.06560989
v -0.04273418 -0.02960983 -0.06413442
v -0.04273418 -0.02923523 -0.06513294
v -0.04273418 -0.02830442 -0.06559277
v -0.04384444 -0.02830442 -0.06558665
v -0.04495469 -0.02719469 -0.06527725
v -0.04495469 -0.02276448 -0.06532372
v -0.04561137 -0.02276448 -0.06009690
v -0.04555946 -0.02719469 -0.06013664
v -0.04554254 -0.02790569 -0.06017455
v -0.04502690 -0.02828767 -0.05987249
v -0.04470533 -0.02908646 -0.05998316
v -0.04384444 -0.02921713 -0.05984130
v -0.04384444 -0.02957498 -0.06080559
v -0.04384444 -0.02957498 -0.06413442
v -0.04384444 -0.02921713 -0.06512622
v -0.04470533 -0.02908646 -0.06497641
v -0.04502690 -0.02828767 -0.06509626
v -0.04554254 -0.02790569 -0.06477462
v -0.04555946 -0.02719469 -0.06481682
v -0.04561588 -0.02276448 -0.06486329
v -0.04561250 -0.02276448 -0.06010301
v -0.04573661 -0.02276448 -0.06080559
v -0.04541279 -0.02853897 -0.06080559
v -0.04561024 -0.02719469 -0.06080559
v -0.04555946 -0.02798410 -0.06080559
v -0.04485766 -0.02919971 -0.06080559
v -0.04485766 -0.02919971 -0.06413442
v -0.04541279 -0.02853897 -0.06413442
v -0.04555946 -0.02798410 -0.06413442
v -0.04561024 -0.02719469 -0.06413442
v -0.04574000 -0.02276448 -0.06414053
v -0.04575918 -0.02276448 -0.06191540
v -0.04575918 -0.02276448 -0.06303439
f 1 2 6
f 1 6 14
f 1 14 25
f 1 25 38
f 1 38 51
f 1 51 57
f 1 57 71
f 1 71 82
f 1 82 84
f 1 84 83
f 1 83 73
f 1 73 72
f 1 72 58
f 1 58 46
f 1 46 45
f 1 45 44
f 1 44 34
f 1 34 33
f 1 33 31
f 1 31 19
f 1 19 9
f 1 9 3
f 1 3 4
f 1 4 5
f 1 5 7
f 1 7 2
f 2 7 8
f 2 8 6
f 3 9 4
f 4 9 10
f 4 10 11
f 4 11 12
f 4 12 13
f 4 13 5
f 5 13 15
f 5 15 7
f 6 8 14
f 7 15 8
f 8 15 16
f 8 16 17
f 8 17 18
f 8 18 14
f 9 19 10
f 10 19 20
f 10 20 21
f 10 21 11
f 11 21 12
f 12 21 22
f 12 22 23
f 12 23 24
f 12 24 13
f 13 24 26
f 13 26 15
f 14 18 25
f 15 26 16
f 16 26 27
f 16 27 28
f 16 28 29
f 16 29 17
f 17 29 18
f 18 29 30
f 18 30 25
f 19 31 20
f 20 32 21
f 20 31 33
f 20 33 34
f 20 34 44
f 20 44 35
f 20 35 43
f 20 43 32
f 21 32 36
f 21 36 22
f 22 36 37
f 22 37 23
f 23 37 39
f 23 39 27
f 23 27 26
f 23 26 24
f 25 30 38
f 27 39 28
f 28 39 40
f 28 40 29
f 29 40 41
f 29 41 30
f 30 41 54
f 30 54 42
f 30 42 51
f 30 51 38
f 32 43 49
f 32 49 36
f 35 44 45
f 35 45 46
f 35 46 47
f 35 47 48
f 35 48 43
f 36 49 50
f 36 50 37
f 37 50 52
f 37 52 39
f 39 52 53
f 39 53 40
f 40 53 54
f 40 54 41
f 42 54 55
f 42 55 56
f 42 56 57
f 42 57 51
f 43 48 49
f 46 58 47
f 47 58 59
f 47 59 60
f 47 60 61
f 47 61 48
f 48 61 62
f 48 62 63
f 48 63 49
f 49 63 50
f 50 63 64
f 50 64 65
f 50 65 52
f 52 65 66
f 52 66 53
f 53 66 55
f 53 55 54
f 55 66 67
f 55 67 68
f 55 68 56
f 56 68 69
f 56 69 70
f 56 70 71
f 56 71 57
f 58 72 59
f 59 72 73
f 59 73 60
f 60 74 62
f 60 62 61
f 60 73 75
f 60 75 76
f 60 76 74
f 62 77 64
f 62 64 63
f 62 74 77
f 64 77 78
f 64 78 65
f 65 67 66
f 65 78 67
f 67 78 79
f 67 79 69
f 67 69 68
f 69 80 81
f 69 81 82
f 69 82 70
f 69 79 80
f 70 82 71
f 73 83 75
f 74 76 80
f 74 80 79
f 74 79 78
f 74 78 77
f 75 83 84
f 75 84 81
f 75 81 80
f 75 80 76
f 81 84 82

