# https://github.com/mikedh/trimesh
v -0.00159146 0.01515479 -0.03478739
v -0.00159146 0.01515479 -0.00086571
v -0.00159146 0.02161050 -0.03478739
v 0.01016754 0.01134028 -0.03478739
v -0.00159146 0.01516284 -0.00081374
v 0.01016754 0.01134028 -0.00086571
v -0.00159146 0.02161050 -0.00086571
v 0.03497779 0.02161050 -0.03478739
v 0.02609321 0.01134028 -0.03478739
v -0.00159146 0.01534783 0.00003180
v 0.01066869 0.01134028 0.00008724
v -0.00159146 0.02136719 0.00002833
v 0.03497779 0.02135311 0.00008031
v 0.03497779 0.02161050 -0.00086571
v 0.03497779 0.01481999 -0.03478739
v 0.02609321 0.01134028 -0.00170778
v -0.00159146 0.01539207 0.00006299
v 0.01165666 0.01134028 0.00045456
v -0.00159146 0.02135010 0.00009071
v 0.03497779 0.02135010 0.00009071
v 0.03497779 0.01481999 -0.00196421
v 0.02608963 0.01134028 -0.00086571
v -0.00159146 0.01609585 0.00048575
v 0.01276634 0.01134028 0.00059664
v -0.00159146 0.02053472 0.00055159
v 0.03497779 0.02054376 0.00054813
v 0.03497779 0.01483708 -0.00086571
v 0.02606457 0.01134028 -0.00068205
v -0.00159146 0.01616925 0.00049961
v 0.01387601 0.01134028 0.00061050
v 0.01276634 0.01165598 0.00061050
v -0.00159146 0.01727821 0.00060357
v -0.00159146 0.01720481 0.00060010
v -0.00159146 0.01949814 0.00060357
v 0.00277566 0.01942475 0.00061050
v 0.03497779 0.02053472 0.00055159
v 0.03497779 0.01519802 0.00010804
v 0.02581758 0.01134028 -0.00004791
v 0.02275344 0.01134028 0.00061050
v 0.00277566 0.01720481 0.00061050
v -0.00159146 0.01831478 0.00060704
v -0.00159146 0.01942475 0.00060704
v 0.03274412 0.01942475 0.00061050
v 0.03497779 0.01943681 0.00060357
v 0.03497779 0.01609585 0.00056199
v 0.02465778 0.01134028 0.00046842
v 0.02566007 0.01134028 0.00005259
v 0.02354811 0.01134028 0.00060704
v 0.03274412 0.01609585 0.00061050
v 0.03497779 0.01942475 0.00060357
v 0.03497779 0.01720481 0.00060010
f 1 2 5
f 1 5 10
f 1 10 17
f 1 17 23
f 1 23 29
f 1 29 33
f 1 33 32
f 1 32 41
f 1 41 42
f 1 42 34
f 1 34 25
f 1 25 19
f 1 19 12
f 1 12 7
f 1 7 3
f 1 3 8
f 1 8 15
f 1 15 9
f 1 9 4
f 1 4 6
f 1 6 2
f 2 6 5
f 3 7 14
f 3 14 8
f 4 9 16
f 4 16 22
f 4 22 28
f 4 28 38
f 4 38 47
f 4 47 46
f 4 46 48
f 4 48 39
f 4 39 30
f 4 30 24
f 4 24 18
f 4 18 11
f 4 11 6
f 5 6 11
f 5 11 10
f 7 12 13
f 7 13 14
f 8 14 13
f 8 13 20
f 8 20 26
f 8 26 36
f 8 36 44
f 8 44 50
f 8 50 51
f 8 51 45
f 8 45 37
f 8 37 27
f 8 27 21
f 8 21 15
f 9 15 21
f 9 21 16
f 10 11 18
f 10 18 17
f 12 19 13
f 13 19 20
f 16 21 22
f 17 18 23
f 18 24 23
f 19 25 26
f 19 26 20
f 21 27 22
f 22 27 28
f 23 24 29
f 24 30 31
f 24 31 32
f 24 32 33
f 24 33 29
f 25 34 35
f 25 35 43
f 25 43 36
f 25 36 26
f 27 37 38
f 27 38 28
f 30 39 49
f 30 49 43
f 30 43 35
f 30 35 40
f 30 40 31
f 31 40 41
f 31 41 32
f 34 42 35
f 35 42 41
f 35 41 40
f 36 43 44
f 37 45 46
f 37 46 47
f 37 47 38
f 39 48 49
f 43 49 50
f 43 50 44
f 45 51 49
f 45 49 48
f 45 48 46
f 49 51 50

