# https://github.com/mikedh/trimesh
v 0.04652194 -0.02161050 -0.05629907
v 0.05161425 -0.02161050 -0.05629907
v 0.04652194 -0.02161050 -0.04987336
v 0.04652194 -0.00987334 -0.05629907
v 0.05272470 -0.02153725 -0.05629907
v 0.05161425 -0.02161050 -0.04987336
v 0.04652194 -0.00987556 -0.04987336
v 0.05022313 0.00106476 -0.04987336
v 0.05022313 0.00106476 -0.05629907
v 0.05374973 -0.02127756 -0.05629907
v 0.05359485 -0.02131751 -0.04987336
v 0.05272470 -0.02153725 -0.04987336
v 0.05611050 0.00106476 -0.04987336
v 0.05611050 0.00106476 -0.05629907
v 0.05430543 -0.02104895 -0.05629907
v 0.05374973 -0.02127756 -0.04987336
v 0.05611050 -0.01720463 -0.04987336
v 0.05611050 -0.01720463 -0.05629907
v 0.05482545 -0.02057839 -0.04987336
v 0.05430543 -0.02104895 -0.04987336
v 0.05491838 -0.02049405 -0.05629907
v 0.05602977 -0.01831442 -0.04987336
v 0.05602977 -0.01831442 -0.05629907
v 0.05491838 -0.02049405 -0.04987336
v 0.05547408 -0.01993027 -0.05629907
v 0.05577070 -0.01921557 -0.04987336
v 0.05601194 -0.01837657 -0.05629907
v 0.05547408 -0.01993027 -0.04987336
v 0.05548816 -0.01989920 -0.05629907
v 0.05572470 -0.01937538 -0.05629907
v 0.05572470 -0.01937538 -0.04987336
f 1 2 6
f 1 6 3
f 1 3 7
f 1 7 4
f 1 4 9
f 1 9 14
f 1 14 18
f 1 18 23
f 1 23 27
f 1 27 30
f 1 30 29
f 1 29 25
f 1 25 21
f 1 21 15
f 1 15 10
f 1 10 5
f 1 5 2
f 2 5 12
f 2 12 6
f 3 6 12
f 3 12 11
f 3 11 16
f 3 16 20
f 3 20 19
f 3 19 24
f 3 24 28
f 3 28 31
f 3 31 26
f 3 26 22
f 3 22 17
f 3 17 13
f 3 13 8
f 3 8 7
f 4 7 8
f 4 8 9
f 5 10 11
f 5 11 12
f 8 13 14
f 8 14 9
f 10 15 20
f 10 20 16
f 10 16 11
f 13 17 18
f 13 18 14
f 15 19 20
f 15 21 19
f 17 22 23
f 17 23 18
f 19 21 24
f 21 25 28
f 21 28 24
f 22 26 27
f 22 27 23
f 25 29 28
f 26 30 27
f 26 31 30
f 28 29 31
f 29 30 31

