# https://github.com/mikedh/trimesh
v -0.03789247 -0.01831431 0.00061050
v -0.03789247 -0.01942410 0.00061050
v -0.03789247 -0.01720451 0.00060704
v -0.03829549 -0.01720451 0.00061050
v -0.05272404 -0.01942410 0.00061050
v -0.03789247 -0.02053390 0.00055159
v -0.04939465 -0.01030675 0.00058971
v -0.04939465 -0.01054574 0.00060704
v -0.03789247 -0.01603718 0.00013229
v -0.05050385 -0.01030675 0.00061050
v -0.05383325 -0.01831431 0.00061050
v -0.05383325 -0.01942410 0.00060704
v -0.05161484 -0.02053390 0.00055159
v -0.03789247 -0.02105394 0.00026050
v -0.04822125 -0.01030675 0.00020853
v -0.03789247 -0.01554038 -0.00086571
v -0.03853088 -0.01549390 -0.00020038
v -0.05383325 -0.01030675 0.00061050
v -0.05494423 -0.01720451 0.00057238
v -0.05494423 -0.01831431 0.00054813
v -0.05504410 -0.01951594 0.00020506
v -0.05391171 -0.02062906 0.00019120
v -0.05272404 -0.02053390 0.00052387
v -0.05161484 -0.02134937 0.00009071
v -0.03789247 -0.02134937 0.00009071
v -0.04745801 -0.01030675 -0.00086571
v -0.04744909 -0.01030675 -0.00197807
v -0.03789247 -0.01554038 -0.03478739
v -0.05494423 -0.01030675 0.00057238
v -0.05562010 -0.01030675 0.00021199
v -0.05580378 -0.01720451 0.00011150
v -0.05576455 -0.01831431 0.00008724
v -0.05564863 -0.01920724 -0.00005830
v -0.05474272 -0.02032256 -0.00000978
v -0.05359250 -0.02121549 -0.00008256
v -0.05272404 -0.02131397 0.00006299
v -0.03789247 -0.02151534 -0.00051919
v -0.05161484 -0.02160939 -0.00086571
v -0.04744909 -0.01030675 -0.03478739
v -0.03789247 -0.02160939 -0.03478739
v -0.05580378 -0.01030675 0.00011150
v -0.05611050 -0.01720451 -0.00086571
v -0.05602847 -0.01831431 -0.00086571
v -0.05572353 -0.01937653 -0.00086571
v -0.05547387 -0.01993198 -0.00086571
v -0.05491748 -0.02049407 -0.00086571
v -0.05430403 -0.02104952 -0.00086571
v -0.05374943 -0.02127856 -0.00086571
v -0.05272404 -0.02153858 -0.00086571
v -0.03789247 -0.02160939 -0.00086571
v -0.05224078 -0.02156956 -0.03478739
v -0.05161484 -0.02160939 -0.03478739
v -0.05611050 -0.01030675 -0.03478739
v -0.05611050 -0.01030675 -0.00086571
v -0.05611050 -0.01720451 -0.03478739
v -0.05602847 -0.01831431 -0.03478739
v -0.05585728 -0.01891291 -0.03478739
v -0.05572353 -0.01937653 -0.03478739
v -0.05561475 -0.01961884 -0.03478739
v -0.05547387 -0.01993198 -0.03478739
v -0.05491748 -0.02049407 -0.03478739
v -0.05464999 -0.02073638 -0.03478739
v -0.05430403 -0.02104952 -0.03478739
v -0.05399196 -0.02117897 -0.03478739
v -0.05374943 -0.02127856 -0.03478739
v -0.05272404 -0.02153858 -0.03478739
f 1 2 6
f 1 6 14
f 1 14 25
f 1 25 37
f 1 37 50
f 1 50 40
f 1 40 28
f 1 28 16
f 1 16 9
f 1 9 3
f 1 3 4
f 1 4 10
f 1 10 18
f 1 18 11
f 1 11 5
f 1 5 2
f 2 5 13
f 2 13 6
f 3 7 8
f 3 8 4
f 3 9 7
f 4 8 10
f 5 11 12
f 5 12 13
f 6 13 14
f 7 10 8
f 7 9 15
f 7 15 26
f 7 26 27
f 7 27 39
f 7 39 53
f 7 53 54
f 7 54 41
f 7 41 30
f 7 30 29
f 7 29 18
f 7 18 10
f 9 16 17
f 9 17 15
f 11 18 29
f 11 29 19
f 11 19 12
f 12 19 20
f 12 20 21
f 12 21 22
f 12 22 23
f 12 23 13
f 13 23 24
f 13 24 14
f 14 24 25
f 15 17 16
f 15 16 26
f 16 27 26
f 16 28 39
f 16 39 27
f 19 30 31
f 19 31 20
f 19 29 30
f 20 31 32
f 20 32 33
f 20 33 21
f 21 33 34
f 21 34 22
f 22 34 35
f 22 35 36
f 22 36 23
f 23 36 24
f 24 37 25
f 24 36 38
f 24 38 37
f 28 40 52
f 28 52 51
f 28 51 66
f 28 66 65
f 28 65 64
f 28 64 63
f 28 63 62
f 28 62 61
f 28 61 60
f 28 60 59
f 28 59 58
f 28 58 57
f 28 57 56
f 28 56 55
f 28 55 53
f 28 53 39
f 30 41 31
f 31 41 54
f 31 54 42
f 31 42 32
f 32 42 43
f 32 43 33
f 33 43 44
f 33 44 45
f 33 45 34
f 34 45 46
f 34 46 47
f 34 47 35
f 35 47 48
f 35 48 49
f 35 49 36
f 36 49 38
f 37 38 50
f 38 49 51
f 38 51 52
f 38 52 40
f 38 40 50
f 42 54 53
f 42 53 55
f 42 55 56
f 42 56 43
f 43 56 57
f 43 57 44
f 44 57 58
f 44 58 59
f 44 59 45
f 45 59 60
f 45 60 61
f 45 61 46
f 46 61 62
f 46 62 47
f 47 62 63
f 47 63 64
f 47 64 48
f 48 64 65
f 48 65 66
f 48 66 49
f 49 66 51

